<svg width="36" height="35" viewBox="0 0 36 35" fill="none" xmlns="http://www.w3.org/2000/svg">
<g id="epp_logo">
<path id="Shape" d="M23.2992 26.4156C23.2992 26.4156 25.7231 23.6454 25.8715 21.9141C25.8715 21.9141 27.7513 22.7055 28.0481 23.3486C28.3449 23.9917 34.6767 29.5815 34.6767 29.5815C34.6767 29.5815 35.4187 32.8959 32.8959 33.5389C30.4225 34.182 29.5816 32.9948 27.9986 30.8182C26.4156 28.6416 25.08 28.4932 25.08 28.4932L23.2992 26.4156Z" fill="white"/>
<path id="Shape_2" d="M1.43455 29.5814L10.586 20.5288C10.586 20.5288 12.9605 26.2176 14.2961 26.9596L6.48024 34.726C6.48024 34.726 3.46272 34.1324 2.86911 32.8462C2.2755 31.6095 1.18722 31.3622 1.43455 29.5814Z" fill="white"/>
<path id="Shape_3" d="M20.5785 10.4871L24.5359 6.13394L27.8008 6.08447L28.3449 9.99241L31.0161 9.44827L31.6098 9.6956L26.9103 14.3456L26.2673 11.328L26.1189 10.4871H20.5785Z" fill="white"/>
<path id="Shape_4" d="M25.08 6.13386L28.147 5.78759L28.3449 9.99233L31.956 9.00298L33.44 5.73812L32.9454 3.0174L31.4613 2.27539L27.5039 4.10569L25.3768 5.54025L25.08 6.13386Z" fill="white"/>
<path id="Shape_5" d="M7.27173 9.64605L10.2398 6.43066L14.3456 10.487L10.8334 10.8333L10.5861 13.0098C10.6355 13.0098 7.71694 11.5258 7.27173 9.64605Z" fill="white"/>
<path id="Shape_6" d="M1.87976 2.17643C1.87976 2.17643 3.80899 4.2046 3.21538 7.51893L6.92545 8.95349L8.40948 8.45881L9.79457 7.46946L9.00309 4.89715L7.71693 2.96791L5.58983 2.72058L3.21538 1.83016L1.87976 1.48389V2.17643Z" fill="white"/>
<path id="Shape_7" fill-rule="evenodd" clip-rule="evenodd" d="M30.4225 34.1818C30.7688 34.5281 31.2635 34.7259 31.8076 34.7259C33.3411 34.7259 34.9241 33.3408 35.4188 31.9558C35.8145 31.0159 35.6661 30.1255 35.0725 29.5318L18.2041 13.0592C17.0663 11.9709 15.6317 11.2783 14.4445 11.2783C13.752 11.2783 13.1584 11.5257 12.7626 11.9214L12.3174 12.3666C11.1302 13.5538 11.6743 15.8788 13.5541 17.7091L30.4225 34.1818ZM13.7025 12.7623C13.9004 12.6139 14.1477 12.515 14.494 12.515C15.3349 12.515 16.4727 13.0592 17.3631 13.999L34.3305 30.4223C34.5778 30.6696 34.5778 31.0159 34.3799 31.5105C33.9347 32.4999 32.698 33.4892 31.8571 33.4892C31.6592 33.4892 31.5108 33.4398 31.3624 33.2914L14.494 16.8187C13.01 15.3841 12.6637 13.8012 13.2573 13.2076L13.7025 12.7623Z" fill="black"/>
<g id="Group">
<path id="Shape_8" fill-rule="evenodd" clip-rule="evenodd" d="M1.1872 28.8891C0.494655 29.5816 1.0388 31.7582 1.58294 32.3024L3.51217 34.1821C4.05632 34.7263 6.28236 35.2704 6.9749 34.5779L31.956 9.89356C32.0055 9.84409 32.0549 9.79462 32.0549 9.74515C32.8277 8.11832 34.403 3.68266 34.9938 2.01908C35.1215 1.65926 35.2033 1.42912 35.2209 1.38514C35.2703 1.18727 35.2209 0.9894 35.0725 0.840998C34.9241 0.742063 34.7262 0.692595 34.5283 0.742063C34.162 0.88487 33.7637 1.03937 33.3464 1.20125C30.4389 2.3291 26.6071 3.81546 26.2178 4.20479L1.1872 28.8891ZM26.9103 4.9468C27.3061 4.65 30.6204 3.31437 33.8852 2.07769L33.8605 2.14806C33.2085 4.00395 31.8972 7.73638 31.1645 9.25048L6.23289 33.8853C5.93608 34.0832 4.45206 33.7864 4.20472 33.539L2.27549 31.6098C2.02815 31.3625 1.73134 29.9279 1.92921 29.6311L26.9103 4.9468Z" fill="black"/>
<path id="Shape_9" d="M8.31052 32.5991L3.21536 27.5534L3.90791 26.8608L9.00306 31.9065L8.31052 32.5991Z" fill="black"/>
<path id="Shape_10" d="M27.7513 10.1903C27.6523 10.0914 27.6029 9.94295 27.6029 9.79455L27.7513 6.52969L24.6843 6.92543L24.4864 5.93608L28.1965 5.44141C28.3449 5.44141 28.4933 5.49087 28.6417 5.58981C28.7406 5.68874 28.8396 5.83715 28.8396 5.98555L28.6912 9.20094L31.4119 8.70626L31.6592 9.69561L28.2954 10.3387C28.0481 10.3882 27.8997 10.3387 27.7513 10.1903C27.7513 10.1903 27.7513 10.2398 27.7513 10.1903Z" fill="black"/>
<path id="Shape_11" d="M7.27172 30.8181L6.87598 30.4718L27.9491 9.646L28.3449 9.99227L7.27172 30.8181Z" fill="black"/>
<path id="Shape_12" d="M5.04567 28.9879C4.94673 28.8889 4.94673 28.691 5.04567 28.5921L28.147 5.78758C28.2459 5.68865 28.3943 5.68865 28.4933 5.78758C28.5922 5.88652 28.5922 6.03492 28.4933 6.13385L5.39194 28.9879C5.29301 29.0868 5.1446 29.0868 5.04567 28.9879Z" fill="black"/>
<path id="Shape_13" d="M32.797 5.09532L30.7688 3.11662C30.6699 3.01768 30.6204 2.91875 30.6699 2.77034C30.6699 2.67141 30.7688 2.57247 30.8677 2.52301L34.6273 0.841109C34.7757 0.791641 34.9241 0.791641 35.0725 0.940044C35.1714 1.03898 35.2209 1.23685 35.1714 1.38525L33.44 4.94691C33.44 4.99638 33.3906 5.09532 33.3411 5.14478C33.1927 5.29319 32.9948 5.24372 32.797 5.09532Z" fill="black"/>
</g>
<path id="Shape_14" d="M0.544133 0.840795C1.83029 2.62163 3.11644 5.095 2.67124 7.32104C2.62177 7.61785 2.77017 7.81572 3.01751 7.91465C4.551 8.50826 6.0845 9.10187 7.61799 9.64602C7.76639 9.69548 7.96426 9.64602 8.0632 9.54708C8.70628 8.904 9.39882 8.26093 10.0419 7.56838C10.1408 7.46944 10.2398 7.27157 10.1408 7.12317C9.54722 5.58968 8.95361 4.05618 8.36 2.57216C8.26107 2.32482 8.0632 2.17642 7.76639 2.22589C5.58982 2.62163 3.06698 1.43441 1.18721 0.197717C0.692535 -0.148556 0.19786 0.692392 0.692535 1.03866C2.77017 2.42376 5.54035 3.66044 8.0632 3.16577C7.86533 3.06683 7.66746 2.9679 7.46959 2.8195C8.0632 4.35299 8.65681 5.88648 9.25042 7.37051C9.29989 7.22211 9.34935 7.0737 9.34935 6.9253C8.70628 7.56838 8.01373 8.21146 7.37065 8.904C7.51906 8.85454 7.66746 8.80507 7.81586 8.80507C6.28237 8.21146 4.74887 7.61785 3.21538 7.02424C3.31431 7.22211 3.41325 7.41998 3.56165 7.61785C4.05633 5.095 2.77017 2.37429 1.33561 0.395587C1.03881 -0.148556 0.19786 0.346119 0.544133 0.840795Z" fill="black"/>
<path id="Shape_15" d="M10.0914 6.23286C8.90413 7.37062 7.76638 8.50837 6.57916 9.64612C6.38129 9.84399 6.38129 10.1408 6.57916 10.3387C7.86531 11.6248 9.15147 12.911 10.4376 14.1971C10.6355 14.395 10.9323 14.395 11.1302 14.1971C12.3174 13.0594 13.4551 11.9216 14.6424 10.7839C14.8402 10.586 14.8402 10.2892 14.6424 10.0913C13.3562 8.80517 12.0701 7.51902 10.7839 6.23286C10.3387 5.78765 9.69561 6.4802 10.0914 6.92541C11.3775 8.21156 12.6637 9.49772 13.9498 10.7839C13.9498 10.5365 13.9498 10.3387 13.9498 10.0913C12.7626 11.2291 11.6248 12.3668 10.4376 13.5046C10.685 13.5046 10.8828 13.5046 11.1302 13.5046C9.84402 12.2184 8.55786 10.9323 7.2717 9.64612C7.2717 9.89346 7.2717 10.0913 7.2717 10.3387C8.45892 9.20091 9.59668 8.06316 10.7839 6.92541C11.2291 6.4802 10.5366 5.83712 10.0914 6.23286Z" fill="black"/>
<path id="Shape_16" d="M2.32495 2.27524C3.26483 3.21512 4.20472 4.155 5.19407 5.09488C5.44141 5.34222 5.83715 4.94648 5.58981 4.69914C4.60046 3.80873 3.66057 2.86885 2.72069 1.92896C2.47335 1.68162 2.07761 2.07737 2.32495 2.27524Z" fill="black"/>
<path id="Shape_17" d="M6.03502 5.04557C6.6781 5.09504 6.6781 5.98546 6.03502 6.03492C5.39194 6.08439 5.39194 5.09504 6.03502 5.04557C6.28236 5.04557 6.28236 4.60037 6.03502 4.64983C5.54035 4.6993 5.14461 5.04557 5.14461 5.54025C5.09514 6.03492 5.58981 6.43066 6.03502 6.43066C6.5297 6.48013 6.92544 5.98546 6.92544 5.54025C6.9749 5.04557 6.48023 4.64983 6.03502 4.64983C5.78768 4.60037 5.78768 5.04557 6.03502 5.04557Z" fill="black"/>
<g id="Group_2">
<g id="Group_3">
<path id="Shape_18" d="M26.2673 19.4404V10.4868H10.8334V19.4404C10.8334 19.4404 10.685 23.1505 13.4552 26.1186C16.2254 29.0371 18.5503 29.4824 18.5503 29.4824C18.5503 29.4824 20.8753 29.0371 23.6455 26.1186C26.4157 23.1505 26.2673 19.4404 26.2673 19.4404Z" fill="white"/>
<path id="Shape_19" fill-rule="evenodd" clip-rule="evenodd" d="M18.4514 30.076H18.5503L18.6987 30.0265C18.7977 30.0265 21.2216 29.5318 24.0907 26.5143C26.937 23.5715 26.9134 19.876 26.9105 19.4194C26.9104 19.4078 26.9103 19.3983 26.9103 19.391V9.84375H10.2398V19.4405C10.2398 19.4455 10.2398 19.4513 10.2397 19.4578C10.2389 19.8964 10.2322 23.5903 13.0594 26.5638C15.9285 29.5813 18.3524 30.076 18.4514 30.076ZM11.4765 19.4405V11.0804H25.7231V19.391V19.4405C25.7231 19.4413 25.7231 19.4431 25.7232 19.4459C25.7257 19.6067 25.7786 22.9986 23.2497 25.6734C21.0237 27.9983 19.0945 28.6414 18.5998 28.7898C18.1051 28.6909 16.1759 27.9983 13.9498 25.6734C11.421 22.9986 11.4739 19.6067 11.4764 19.4459C11.4764 19.4431 11.4765 19.4413 11.4765 19.4405Z" fill="black"/>
</g>
<path id="Shape_20" d="M10.8334 10.6352L18.5998 10.4868V16.9671H10.8334V10.6352Z" fill="white"/>
<path id="Shape_21" d="M26.1188 10.7342L11.4764 10.4868C11.4764 10.4868 8.75573 20.1825 13.8509 26.3164C15.8791 28.7403 16.2253 28.7898 16.72 29.0371C17.4125 29.3834 17.9072 29.3834 19.1934 29.5813L26.0694 23.4968L26.1188 10.7342Z" fill="#1C75BC"/>
<path id="Shape_22" fill-rule="evenodd" clip-rule="evenodd" d="M18.4514 30.076H18.5503L18.6987 30.0265C18.7977 30.0265 21.2216 29.5318 24.0907 26.5143C26.937 23.5715 26.9134 19.876 26.9105 19.4194C26.9104 19.4078 26.9103 19.3983 26.9103 19.391V9.84375H10.2398V19.4405C10.2398 19.4455 10.2398 19.4513 10.2397 19.4578C10.2389 19.8964 10.2322 23.5903 13.0594 26.5638C15.9285 29.5813 18.3524 30.076 18.4514 30.076ZM11.4765 19.4405V11.0804H25.7231V19.391V19.4405C25.7231 19.4413 25.7231 19.4431 25.7232 19.4459C25.7257 19.6067 25.7786 22.9986 23.2497 25.6734C21.0237 27.9983 19.0945 28.6414 18.5998 28.7898C18.1051 28.6909 16.1759 27.9983 13.9498 25.6734C11.421 22.9986 11.4739 19.6067 11.4764 19.4459C11.4764 19.4431 11.4765 19.4413 11.4765 19.4405Z" fill="black"/>
</g>
<g id="Prize_4_">
<path id="Shape_23" fill-rule="evenodd" clip-rule="evenodd" d="M22.1355 15.6187V15.6186C22.1483 15.4338 22.1615 15.2425 22.1615 15.038C22.1615 14.8896 22.0131 14.7412 21.8647 14.7412H15.3349C15.1865 14.7412 15.0381 14.8896 15.0381 15.038V15.038C15.0381 15.4338 15.0381 15.78 15.0876 16.1263H15.0381C14.0488 16.522 13.5541 17.7093 13.9498 18.6986C14.1477 19.1933 14.5435 19.5396 14.9887 19.7869C15.236 19.8858 15.4833 19.9353 15.7307 19.9353C15.9285 19.9353 16.1264 19.8858 16.3243 19.8364C16.6211 20.331 16.9674 20.7763 17.2642 21.1225C17.2642 21.172 17.3136 21.2215 17.3136 21.2215C17.462 21.3699 17.561 21.6172 17.561 21.8645C17.561 22.1119 17.462 22.3097 17.3136 22.5076C17.1652 22.656 16.9179 22.755 16.6706 22.755C16.0275 22.755 15.4833 23.2991 15.4833 23.9422C15.4833 24.0906 15.6317 24.239 15.7801 24.239H21.271C21.4194 24.239 21.5678 24.0906 21.5678 23.9422C21.5678 23.2991 21.0237 22.755 20.3806 22.755C20.1333 22.755 19.9354 22.656 19.7375 22.5076C19.5891 22.3592 19.4902 22.1119 19.4902 21.8645C19.4902 21.6172 19.5891 21.4193 19.7375 21.2215C19.766 21.193 19.7781 21.1809 19.7832 21.1664C19.787 21.1556 19.787 21.1435 19.787 21.1225L19.8213 21.0826L19.8213 21.0826L19.8213 21.0826C20.1102 20.7458 20.4414 20.3597 20.7269 19.8364C20.9248 19.8858 21.1226 19.9353 21.3205 19.9353C21.5678 19.9353 21.8152 19.8858 22.0625 19.7869C22.5572 19.589 22.9035 19.1933 23.1013 18.6986C23.596 17.7093 23.1013 16.522 22.112 16.1263C22.112 15.959 22.1235 15.7916 22.1355 15.6187V15.6187V15.6187ZM15.2855 19.1933C14.9392 19.0449 14.6919 18.7975 14.5435 18.4513C14.2467 17.8082 14.5435 17.0167 15.1865 16.7199C15.3844 17.7093 15.7307 18.5502 16.077 19.2922C15.8296 19.3417 15.5823 19.3417 15.2855 19.1933ZM20.8753 23.5959C20.7764 23.398 20.5785 23.2991 20.3806 23.2991C19.9849 23.2991 19.5891 23.1507 19.2923 22.8539C19.0945 22.6065 18.9461 22.3097 18.8966 21.9635C18.7977 22.0129 18.7482 22.0624 18.7482 22.0624C18.6987 22.1119 18.6493 22.1119 18.5998 22.1119C18.5009 22.1119 18.4514 22.1119 18.4019 22.0624C18.3525 22.0624 18.303 22.0129 18.2535 21.9635C18.2535 22.3097 18.1051 22.6065 17.8578 22.8539C17.561 23.1507 17.2147 23.2991 16.819 23.2991C16.6211 23.2991 16.4232 23.398 16.3243 23.5959H20.8753ZM18.5998 21.4688C17.9567 20.9247 15.7801 18.7975 15.6317 15.3843H21.5184C21.4194 18.7975 19.2429 20.9247 18.5998 21.4688ZM21.8647 19.1933C22.2109 19.0449 22.4583 18.7975 22.6067 18.4513C22.9035 17.8082 22.6067 17.0662 21.9636 16.7199C21.8152 17.7093 21.4689 18.5997 21.0732 19.2922C21.3205 19.3417 21.6173 19.2922 21.8647 19.1933Z" fill="white"/>
</g>
<path id="Rectangle-path" d="M31.7536 27.479L32.2786 28.0033L28.8532 31.4336L28.3281 30.9093L31.7536 27.479Z" fill="black"/>
<path id="Rectangle-path_2" d="M32.9196 28.4624L33.4442 28.9871L30.0163 32.415L29.4917 31.8903L32.9196 28.4624Z" fill="black"/>
</g>
</svg>
