<svg width="20" height="15" viewBox="0 0 20 15" fill="none" xmlns="http://www.w3.org/2000/svg">
<path d="M0 0H20V15H0V0Z" fill="#012169"/>
<path d="M0 0V1.67578L17.7637 15H20V13.3242L2.23633 0H0ZM20 0V1.67578L2.23633 15H0V13.3242L17.7637 0H20Z" fill="white"/>
<path d="M8.33398 0V15H11.666V0H8.33398ZM0 5.00098V9.99902H20V5.00098H0Z" fill="white"/>
<path d="M0 6V9H20V6H0ZM9 0V15H11V0H9ZM0 15L6.66602 9.99902H8.1582L1.49023 15H0ZM0 0L6.66602 5.00098H5.17578L0 1.11914V0ZM11.8438 5.00098L18.5098 0H20L13.334 5.00098H11.8438ZM20 15L13.334 9.99902H14.8242L20 13.8809V15Z" fill="#C8102E"/>
</svg>
