<svg width="20" height="15" viewBox="0 0 20 15" fill="none" xmlns="http://www.w3.org/2000/svg">
<path d="M0 0H20V5H0V0Z" fill="#FF9933"/>
<path d="M0 5H20V10H0V5Z" fill="white"/>
<path d="M0 10H20V15H0V10Z" fill="#128807"/>
<path d="M10 9.5C11.1046 9.5 12 8.60457 12 7.5C12 6.39543 11.1046 5.5 10 5.5C8.89543 5.5 8 6.39543 8 7.5C8 8.60457 8.89543 9.5 10 9.5Z" fill="#000088"/>
<path d="M10 9.25049C10.9665 9.25049 11.75 8.46699 11.75 7.50049C11.75 6.53399 10.9665 5.75049 10 5.75049C9.0335 5.75049 8.25 6.53399 8.25 7.50049C8.25 8.46699 9.0335 9.25049 10 9.25049Z" fill="white"/>
<path d="M10 7.84991C10.1933 7.84991 10.35 7.69321 10.35 7.4999C10.35 7.3066 10.1933 7.1499 10 7.1499C9.80673 7.1499 9.65002 7.3066 9.65002 7.4999C9.65002 7.69321 9.80673 7.84991 10 7.84991Z" fill="#000088"/>
<path d="M11.7233 7.81814C11.7726 7.82463 11.8178 7.78994 11.8243 7.74066C11.8308 7.69137 11.7961 7.64617 11.7468 7.63968C11.6975 7.63319 11.6523 7.66788 11.6458 7.71716C11.6394 7.76644 11.674 7.81165 11.7233 7.81814Z" fill="#000088"/>
<path d="M10.0001 9.24971L10.0601 8.19971L10.0001 7.69971L9.94006 8.19971L10.0001 9.24971Z" fill="#000088"/>
</svg>
