<svg width="216" height="51" viewBox="0 0 216 51" fill="none" xmlns="http://www.w3.org/2000/svg">
<path d="M32.2887 36.1708C32.2887 36.1708 35.1948 32.8337 35.3765 30.7594C35.3765 30.7594 37.6469 31.6613 38.0102 32.473C38.3734 33.2847 46.0021 39.8686 46.0021 39.8686C46.0021 39.8686 46.9103 43.8369 43.8225 44.5584C40.8255 45.3702 39.8265 43.9271 37.9193 41.3116C36.0122 38.6961 34.3775 38.5157 34.3775 38.5157L32.2887 36.1708ZM6.08171 39.9489L17.0365 29.1656C17.0365 29.1656 19.8431 35.9051 21.4728 36.8038L12.1476 46.0594C12.1476 46.0594 8.52617 45.3405 7.80189 43.8129C7.07761 42.3751 5.81011 42.0157 6.08171 39.9489Z" fill="white"/>
<path d="M28.9485 17.0517L33.7986 11.8844L37.7337 11.7938L38.3742 16.5078L41.5772 15.8731L42.3093 16.1452L36.6356 21.675L35.9034 18.0489L35.7203 17.0517H28.9485Z" fill="white"/>
<path d="M34.5155 11.9531L38.1593 11.5L38.4326 16.575L42.8052 15.3969L44.5361 11.5L43.9896 8.23744L42.1676 7.33124L37.4305 9.50623L34.8799 11.2281L34.5155 11.9531Z" fill="white"/>
<path d="M13.0427 16.1657L16.5779 12.2719L21.4728 17.1618L17.3031 17.6146L17.0311 20.2406C17.1218 20.2406 13.5866 18.4296 13.0427 16.1657Z" fill="white"/>
<path d="M6.52136 7.12407C6.52136 7.12407 8.8845 9.57686 8.15738 13.574L12.611 15.3L14.4288 14.6641L16.0648 13.4831L15.1559 10.3945L13.6108 8.03251L11.0659 7.75998L8.24827 6.66986L6.61225 6.21564V7.12407H6.52136Z" fill="white"/>
<path d="M42.6799 46.0594C42.0413 46.0594 41.4027 45.7888 41.0377 45.428L20.6924 25.766C18.4116 23.6013 17.7729 20.8053 19.2327 19.3623L19.7801 18.8211C20.2362 18.3701 20.9661 18.0094 21.7872 18.0094C23.247 18.0094 24.9804 18.8211 26.349 20.174L46.6943 39.8361C47.4241 40.5576 47.6066 41.6399 47.1504 42.7222C46.4206 44.4359 44.5046 46.0594 42.6799 46.0594ZM21.7872 19.5426C21.3311 19.5426 21.0574 19.6328 20.8749 19.8132L20.3275 20.3544C19.5976 21.0759 20.0538 22.97 21.7872 24.6836L42.1325 44.3457C42.315 44.5261 42.4975 44.6163 42.7712 44.6163C43.7748 44.6163 45.2345 43.4438 45.7819 42.2713C46.0556 41.6399 46.0556 41.2791 45.6907 41.0086L25.2541 21.4367C24.1593 20.174 22.7908 19.5426 21.7872 19.5426Z" fill="black"/>
<path d="M6.25026 43.124C5.61354 42.4917 4.97682 39.8721 5.79546 39.0591L35.903 9.61138C36.4488 9.0694 42.3612 6.81114 45.9086 5.45618C46.1814 5.36585 46.3634 5.45618 46.5453 5.54651C46.7272 5.72717 46.8182 5.99816 46.7272 6.17882C46.6362 6.44981 44.0894 13.7666 42.9069 16.2055C42.9069 16.2958 42.8159 16.2958 42.8159 16.3862L12.7993 45.8339C11.9807 46.6469 9.25192 46.0146 8.6152 45.3823L6.25026 43.124ZM45.0899 6.9918C41.1787 8.43709 37.1765 10.063 36.7217 10.4244L6.70505 39.8721C6.43217 40.2334 6.79601 41.9497 7.15985 42.2207L9.5248 44.5693C9.79767 44.8403 11.6169 45.2016 11.9807 45.021L41.9973 15.5732C42.725 13.7666 44.3623 9.15973 45.0899 6.9918Z" fill="black"/>
<path d="M14.3005 43.5094L8.271 37.4678L9.08092 36.6562L15.1105 42.6978L14.3005 43.5094Z" fill="black"/>
<path d="M37.6983 16.678C37.6079 16.5879 37.5175 16.4075 37.5175 16.2271L37.6983 12.3495L33.9914 12.8004L33.7202 11.6281L38.1504 10.9969C38.3312 10.9969 38.512 11.0871 38.6928 11.1772C38.7832 11.2674 38.9641 11.4478 38.9641 11.6281L38.7832 15.5057L42.0381 14.8745L42.3093 16.0468L38.3312 16.8584C38.0599 16.9486 37.8791 16.8584 37.6983 16.678C37.6983 16.7682 37.6983 16.678 37.6983 16.678Z" fill="black"/>
<path d="M13.0192 41.4375L12.5656 41.0755L37.8792 16.0969L38.3328 16.5493L13.0192 41.4375Z" fill="black"/>
<path d="M10.4069 39.2978C10.316 39.2074 10.316 38.9362 10.4069 38.8458L38.1283 11.5428C38.2192 11.4524 38.401 11.4524 38.5828 11.5428C38.6737 11.6332 38.6737 11.814 38.5828 11.9948L10.8614 39.2978C10.6796 39.3882 10.4978 39.3882 10.4069 39.2978ZM43.7963 10.6504L41.3253 8.32271C41.2338 8.23318 41.1423 8.05413 41.2338 7.87508C41.2338 7.78555 41.3253 7.6065 41.5083 7.6065L46.0843 5.63693C46.2674 5.5474 46.4504 5.5474 46.6335 5.72646C46.725 5.81598 46.8165 6.08456 46.725 6.26361L44.62 10.4713C44.62 10.5609 44.5285 10.6504 44.5285 10.7399C44.2539 10.919 44.0709 10.8294 43.7963 10.6504ZM4.90469 5.61497C6.45201 7.7901 7.99933 10.6903 7.45322 13.4092C7.3622 13.7717 7.54424 14.0436 7.90831 14.1342C9.72869 14.8593 11.6401 15.5843 13.4605 16.2187C13.6425 16.3093 13.9156 16.2187 14.0066 16.1281C14.8257 15.3124 15.6449 14.5874 16.3731 13.7717C16.4641 13.6811 16.6461 13.4092 16.4641 13.2279C15.7359 11.4153 15.0078 9.51207 14.2796 7.7901C14.1886 7.5182 13.9156 7.33694 13.5515 7.33694C10.9119 7.7901 7.90831 6.43064 5.63284 4.88993C4.99571 4.43678 4.44959 5.52434 4.99571 5.88686C7.45322 7.5182 10.8209 9.05892 13.8245 8.42451C13.5515 8.33388 13.3694 8.15262 13.0964 7.97136C13.8245 9.78396 14.5527 11.6872 15.2808 13.4092C15.3719 13.2279 15.3719 13.0467 15.3719 12.8654C14.5527 13.6811 13.7335 14.4061 13.0054 15.2218C13.1874 15.1311 13.3694 15.1311 13.5515 15.1311C11.7311 14.4061 9.81971 13.6811 7.99933 12.956C8.09035 13.2279 8.27239 13.4092 8.45442 13.6811C9.09156 10.6903 7.54424 7.42757 5.81488 5.07119C5.54182 4.43678 4.54061 4.98056 4.90469 5.61497Z" fill="black"/>
<path d="M16.4639 11.9727C15.0129 13.3297 13.6527 14.6867 12.2924 16.0436C12.0204 16.315 12.0204 16.6769 12.2924 16.8578C13.834 18.3957 15.3757 19.9336 16.9173 21.4715C17.1894 21.7428 17.5521 21.7428 17.7335 21.4715C19.1844 20.1145 20.5447 18.7575 21.905 17.4006C22.177 17.1292 22.177 16.7673 21.905 16.5864C20.3633 15.0485 18.8217 13.5106 17.2801 11.9727C16.7359 11.43 16.0105 12.2441 16.4639 12.7869C18.0055 14.3248 19.5472 15.8627 21.0888 17.4006C21.0888 17.1292 21.0888 16.8578 21.0888 16.5864C19.6378 17.9434 18.2776 19.3003 16.9173 20.6573C17.1894 20.6573 17.4614 20.6573 17.7335 20.6573C16.1918 19.1194 14.6502 17.5815 13.1086 16.0436C13.1086 16.315 13.1086 16.5864 13.1086 16.8578C14.5595 15.5008 15.9198 14.1439 17.2801 12.7869C17.8242 12.2441 17.008 11.5204 16.4639 11.9727ZM7.08306 7.39149C8.1796 8.48185 9.36751 9.66308 10.5554 10.7534C10.8296 11.026 11.3778 10.5717 11.0123 10.2991C9.8244 9.20876 8.63649 8.1184 7.53995 6.93717C7.26582 6.66458 6.80893 7.1189 7.08306 7.39149Z" fill="black"/>
<path d="M11.6112 10.5118C12.4396 10.604 12.4396 11.6178 11.6112 11.71C10.8748 11.8022 10.8748 10.604 11.6112 10.5118C11.8873 10.5118 11.8873 9.95881 11.6112 10.051C10.9669 10.1431 10.5066 10.5118 10.5066 11.157C10.4146 11.8022 11.0589 12.263 11.6112 12.263C12.2555 12.3552 12.7158 11.71 12.7158 11.157C12.8078 10.5118 12.1635 10.051 11.6112 10.051C11.3351 10.051 11.3351 10.5118 11.6112 10.5118Z" fill="black"/>
<path d="M36.0379 27.7492V17.0002H17.4307V27.6589C17.4307 27.6589 17.2483 32.0849 20.6231 35.6077C23.998 39.1305 26.7343 39.5821 26.7343 39.5821C26.7343 39.5821 29.5619 39.0402 32.8455 35.6077C36.2203 32.1752 36.0379 27.7492 36.0379 27.7492Z" fill="white"/>
<path d="M26.7343 40.395H26.6431C26.5519 40.395 23.6331 39.7627 20.1671 36.24C16.701 32.7172 16.7923 28.1105 16.7923 27.7491V16.2775H36.8588V27.6588C36.8588 28.0201 36.95 32.5365 33.484 36.1496C30.0179 39.7627 27.0992 40.3047 27.008 40.3047L26.7343 40.395ZM18.1604 17.7228V27.7491C18.1604 27.8395 18.0692 31.9042 21.1704 35.156C23.8156 37.9562 26.1871 38.7691 26.7343 38.8595C27.3728 38.6788 29.6531 37.9562 32.2982 35.156C35.3994 31.9042 35.3082 27.7491 35.3082 27.7491V27.6588V17.7228H18.1604Z" fill="black"/>
<path d="M17.4963 17.2348L26.7217 17.0531V24.8625H17.4963V17.2348Z" fill="white"/>
<path d="M35.7879 17.4838L18.0608 17.2125C18.0608 17.2125 14.7713 28.7887 20.8935 36.1142C23.3607 39.0083 23.7262 39.0987 24.3658 39.37C25.1882 39.8222 25.8279 39.8222 27.3813 40.0031L35.6966 32.768L35.7879 17.4838Z" fill="#39CCCC"/>
<path d="M26.6306 40.4812H26.5395C26.4484 40.4812 23.5334 39.8503 20.0718 36.3351C16.6102 32.8199 16.7013 28.2231 16.7013 27.8626V16.4156H36.742V27.7724C36.742 28.133 36.8331 32.6396 33.3716 36.245C29.91 39.8503 26.9949 40.3911 26.9039 40.3911L26.6306 40.4812ZM18.0677 17.8578V27.8626C18.0677 27.9527 17.9766 32.0087 21.0738 35.2535C23.7155 38.0476 26.084 38.8588 26.6306 38.949C27.2682 38.7687 29.5456 38.0476 32.1873 35.2535C35.2845 32.0087 35.1934 27.8626 35.1934 27.8626V27.7724V17.8578H18.0677Z" fill="black"/>
<path d="M31.0235 23.929C30.9331 23.929 30.9331 23.929 31.0235 23.929C31.0235 23.48 31.1139 23.1208 31.1139 22.6717C31.1139 22.4921 30.9331 22.3125 30.7523 22.3125H22.9781C22.7973 22.3125 22.6166 22.4921 22.6166 22.6717C22.6166 23.1208 22.6166 23.5698 22.707 23.929C22.707 23.929 22.707 23.929 22.6166 23.929C21.4414 24.3781 20.8086 25.815 21.351 26.9824C21.6222 27.6111 22.0742 27.9703 22.6166 28.2397C22.8877 28.3295 23.2493 28.4193 23.5205 28.4193C23.7917 28.4193 23.9725 28.3295 24.2437 28.3295C24.6053 28.9582 25.0573 29.4072 25.3285 29.8562C25.3285 29.9461 25.4189 29.9461 25.4189 29.9461C25.5997 30.1257 25.6901 30.3951 25.6901 30.7543C25.6901 31.1135 25.5997 31.2932 25.4189 31.5626C25.2381 31.7422 24.9669 31.832 24.6053 31.832C23.7917 31.832 23.1589 32.4606 23.1589 33.2689C23.1589 33.4485 23.3397 33.6281 23.5205 33.6281H30.1196C30.3003 33.6281 30.4811 33.4485 30.4811 33.2689C30.4811 32.4606 29.8484 31.832 29.0348 31.832C28.7636 31.832 28.4924 31.7422 28.2212 31.5626C28.0404 31.383 27.95 31.1135 27.95 30.7543C27.95 30.3951 28.0404 30.2155 28.2212 29.9461C28.3116 29.8562 28.3116 29.8562 28.3116 29.8562C28.6732 29.4072 29.1252 28.9582 29.3964 28.3295C29.6676 28.4193 29.8484 28.4193 30.1196 28.4193C30.3907 28.4193 30.7523 28.3295 31.0235 28.2397C31.6563 27.9703 32.0179 27.5213 32.2891 26.9824C32.7411 25.815 32.1987 24.3781 31.0235 23.929ZM22.7973 27.5213C22.3454 27.3417 22.0742 27.0722 21.8934 26.6232C21.5318 25.815 21.8934 24.9169 22.707 24.5577C22.9781 25.7251 23.3397 26.713 23.7917 27.6111C23.5205 27.7009 23.1589 27.7009 22.7973 27.5213ZM28.9444 32.4606C29.2156 32.4606 29.3964 32.5504 29.5772 32.8199H24.1533C24.2437 32.5504 24.5149 32.4606 24.7861 32.4606C25.2381 32.4606 25.6901 32.281 26.0517 31.9218C26.3229 31.6524 26.5036 31.2932 26.5036 30.8441C26.594 30.9339 26.594 30.9339 26.6844 30.9339C26.7748 31.0237 26.7748 31.0237 26.9556 31.0237C27.046 31.0237 27.046 31.0237 27.1364 30.9339C27.1364 30.9339 27.2268 30.8441 27.3172 30.8441C27.4076 31.2932 27.5884 31.6524 27.7692 31.9218C27.95 32.281 28.4924 32.4606 28.9444 32.4606ZM26.7748 30.3053C25.9613 29.6766 23.4301 27.1621 23.2493 23.1208H30.3003C30.2099 27.0722 27.5884 29.5868 26.7748 30.3053ZM31.5659 26.713C31.3851 27.1621 31.1139 27.4315 30.6619 27.6111C30.3907 27.7009 30.0292 27.7907 29.758 27.7009C30.2099 26.8926 30.6619 25.815 30.8427 24.6475C31.5659 25.0067 31.9275 25.9048 31.5659 26.713Z" fill="white"/>
<path d="M38.511 41.5779L42.6259 37.4581L43.2646 38.0958L39.1499 42.2156L38.511 41.5779Z" fill="black"/>
<path d="M39.886 42.7748L44.0038 38.6578L44.6421 39.296L40.5243 43.413L39.886 42.7748Z" fill="black"/>
<path d="M59.0986 31.7295V22.2549H55.352V19.2159H66.3063V22.2549H62.5597V31.7295H59.0986ZM73.5676 31.9798C69.7139 31.9798 66.8594 29.1016 66.8594 25.5085V25.4727C66.8594 21.8795 69.7496 18.9656 73.6033 18.9656C77.4569 18.9656 80.3115 21.8438 80.3115 25.437V25.4727C80.3115 29.0659 77.4212 31.9798 73.5676 31.9798ZM73.6033 28.8514C75.5123 28.8514 76.779 27.314 76.779 25.5085V25.4727C76.779 23.6672 75.4766 22.094 73.5676 22.094C71.6764 22.094 70.4097 23.6314 70.4097 25.437V25.4727C70.4097 27.2782 71.7121 28.8514 73.6033 28.8514ZM82.1134 31.7295V19.2159H87.4657C90.6235 19.2159 92.6574 20.8427 92.6574 23.6135V23.6493C92.6574 26.5989 90.3916 28.1542 87.2873 28.1542H85.5745V31.7295H82.1134ZM85.5745 25.437H87.2159C88.4469 25.437 89.1963 24.7934 89.1963 23.8102V23.7744C89.1963 22.7018 88.4469 22.1298 87.1981 22.1298H85.5745V25.437ZM105.075 31.9798C101.506 31.9798 98.6341 29.2447 98.6341 25.5085V25.4727C98.6341 21.8259 101.435 18.9656 105.217 18.9656C107.769 18.9656 109.41 20.0382 110.516 21.5756L107.911 23.5957C107.198 22.7018 106.377 22.1298 105.182 22.1298C103.433 22.1298 102.202 23.6135 102.202 25.437V25.4727C102.202 27.3497 103.433 28.8156 105.182 28.8156C106.484 28.8156 107.251 28.2078 108.001 27.2961L110.605 29.1553C109.428 30.782 107.84 31.9798 105.075 31.9798ZM112.086 31.7295V19.2159H115.547V28.6905H121.595V31.7295H112.086ZM122.077 31.7295L127.394 19.1265H130.73L136.047 31.7295H132.336L131.426 29.4949H126.609L125.717 31.7295H122.077ZM127.626 26.7956H130.427L129.035 23.2381L127.626 26.7956ZM141.988 31.944C139.775 31.944 137.67 31.2468 136.136 29.8703L138.063 27.5643C139.294 28.5475 140.667 29.0659 142.112 29.0659C143.04 29.0659 143.54 28.7441 143.54 28.2078V28.1721C143.54 27.6536 143.129 27.3676 141.435 26.9743C138.776 26.3665 136.725 25.6157 136.725 23.0415V23.0057C136.725 20.6818 138.562 19.0014 141.559 19.0014C143.682 19.0014 145.342 19.5734 146.698 20.6639L144.967 23.113C143.825 22.3086 142.576 21.8795 141.47 21.8795C140.632 21.8795 140.221 22.237 140.221 22.684V22.7197C140.221 23.2918 140.65 23.542 142.38 23.9353C145.252 24.561 147.037 25.4906 147.037 27.8324V27.8682C147.037 30.4245 145.021 31.944 141.988 31.944ZM153.441 31.944C151.229 31.944 149.124 31.2468 147.59 29.8703L149.516 27.5643C150.747 28.5475 152.121 29.0659 153.566 29.0659C154.494 29.0659 154.994 28.7441 154.994 28.2078V28.1721C154.994 27.6536 154.583 27.3676 152.888 26.9743C150.23 26.3665 148.178 25.6157 148.178 23.0415V23.0057C148.178 20.6818 150.016 19.0014 153.013 19.0014C155.136 19.0014 156.796 19.5734 158.151 20.6639L156.421 23.113C155.279 22.3086 154.03 21.8795 152.924 21.8795C152.086 21.8795 151.675 22.237 151.675 22.684V22.7197C151.675 23.2918 152.103 23.542 153.834 23.9353C156.706 24.561 158.49 25.4906 158.49 27.8324V27.8682C158.49 30.4245 156.474 31.944 153.441 31.944ZM165.109 31.7295V19.2159H170.462C173.62 19.2159 175.653 20.8427 175.653 23.6135V23.6493C175.653 26.5989 173.388 28.1542 170.283 28.1542H168.571V31.7295H165.109ZM168.571 25.437H170.212C171.443 25.437 172.192 24.7934 172.192 23.8102V23.7744C172.192 22.7018 171.443 22.1298 170.194 22.1298H168.571V25.437ZM177.116 31.7295V19.2159H180.578V28.6905H186.626V31.7295H177.116ZM193.369 31.9619C189.819 31.9619 187.589 30.1564 187.589 26.2414V19.2159H191.104V26.1699C191.104 27.9754 192.014 28.8335 193.405 28.8335C194.797 28.8335 195.707 28.0112 195.707 26.2593V19.2159H199.221V26.152C199.221 30.1921 196.92 31.9619 193.369 31.9619ZM206.179 31.944C203.967 31.944 201.862 31.2468 200.327 29.8703L202.254 27.5643C203.485 28.5475 204.859 29.0659 206.304 29.0659C207.232 29.0659 207.731 28.7441 207.731 28.2078V28.1721C207.731 27.6536 207.321 27.3676 205.626 26.9743C202.968 26.3665 200.916 25.6157 200.916 23.0415V23.0057C200.916 20.6818 202.754 19.0014 205.751 19.0014C207.874 19.0014 209.533 19.5734 210.889 20.6639L209.159 23.113C208.017 22.3086 206.768 21.8795 205.662 21.8795C204.823 21.8795 204.413 22.237 204.413 22.684V22.7197C204.413 23.2918 204.841 23.542 206.572 23.9353C209.444 24.561 211.228 25.4906 211.228 27.8324V27.8682C211.228 30.4245 209.212 31.944 206.179 31.944Z" fill="#232323"/>
</svg>
