<svg width="618" height="432" viewBox="0 0 618 432" fill="none" xmlns="http://www.w3.org/2000/svg">
<g clip-path="url(#clip0)">
<path opacity="0.1" d="M359.135 68.3457C319.53 66.9675 281.809 54.1462 245.786 40.1223C209.763 26.0984 174.085 10.5591 135.422 3.12981C110.561 -1.6528 82.124 -2.32819 62.0886 11.0368C42.8092 23.8966 36.5817 46.0964 33.2297 66.6985C30.7102 82.1994 29.2314 98.5075 36.1326 113.02C40.9251 123.09 49.4365 131.557 55.3025 141.205C75.7814 174.782 61.3273 216.178 39.1121 248.965C28.7056 264.339 16.6231 279.011 8.59361 295.38C0.564151 311.748 -3.13838 330.505 3.92163 347.231C10.8885 363.78 27.4732 376.212 45.4765 384.959C81.9761 402.689 125.021 407.774 166.992 410.651C259.906 417.021 353.318 414.264 446.478 411.502C480.951 410.475 515.583 409.443 549.498 404.095C568.333 401.13 587.777 396.408 601.454 385.047C618.811 370.611 623.116 346.166 611.482 328.062C591.973 297.697 538.029 290.174 524.396 257.569C516.887 239.636 524.599 219.654 535.509 203.022C558.907 167.331 598.129 136.033 600.194 95.2404C601.618 67.2366 582.76 39.1669 553.605 25.9117C523.043 12.0196 480.672 13.7658 458.123 36.7673C434.905 60.4498 394.106 69.5592 359.135 68.3457Z" fill="#CC39B3"/>
<path d="M494.387 374.433C492.164 373.712 489.816 373.461 487.491 373.697C484.659 374.005 485.059 378.326 487.902 378.123C489.324 378.013 490.73 377.753 492.097 377.349L494.387 374.433Z" fill="#CC39B3"/>
<path d="M495.247 374.471C496.27 376.579 496.844 378.877 496.934 381.22C497.027 384.075 492.7 384.278 492.503 381.428C492.417 380.002 492.48 378.57 492.689 377.156L495.247 374.471Z" fill="#CC39B3"/>
<path d="M501.688 365.224C501.688 365.224 500.302 360.865 491.829 362.556C487.995 363.319 488.099 368.832 491.939 369.414H492.103C497.695 370.194 499.639 367.97 501.688 365.224Z" fill="#CC39B3"/>
<path d="M502.57 364.967C502.57 364.967 507.121 365.324 507.406 373.972C507.537 377.865 502.164 379.046 500.724 375.433C500.724 375.378 500.686 375.328 500.664 375.273C498.654 369.997 500.368 367.591 502.57 364.967Z" fill="#CC39B3"/>
<path d="M508.649 353.82C508.33 352.238 507.594 350.77 506.52 349.567C505.446 348.364 504.071 347.471 502.537 346.978C496.802 345.166 493.773 353.765 499.377 355.951C501.695 356.8 504.164 357.159 506.628 357.005L508.649 353.82Z" fill="#CC39B3"/>
<path d="M515.644 339.461C515.644 339.461 513.327 333.97 507.318 332.872C500.948 331.702 499.021 341.295 505.314 342.827C508.137 343.442 511.057 343.466 513.891 342.898L515.644 339.461Z" fill="#CC39B3"/>
<path d="M519.866 325.322C518.886 323.776 517.604 322.445 516.098 321.407C514.593 320.369 512.894 319.646 511.103 319.282C505.626 318.249 503.78 326.469 509.159 327.875C512.537 328.703 516.069 328.654 519.423 327.732L519.866 325.322Z" fill="#CC39B3"/>
<path d="M523.848 311.539C522.101 308.651 519.381 306.484 516.18 305.428C510.703 303.742 507.997 312.067 513.442 313.879C516.669 314.952 520.158 314.939 523.377 313.84L523.848 311.539Z" fill="#CC39B3"/>
<path d="M525.524 298.982C525.524 298.982 523.333 293.831 518.87 291.108C513.896 288.071 509.159 295.501 513.94 298.845C516.887 300.915 520.661 302.342 525.07 301.387L525.524 298.982Z" fill="#CC39B3"/>
<path d="M526.351 284.085C526.351 284.085 523.936 278.885 519.302 276.397C514.121 273.652 509.613 281.241 514.493 284.513C517.687 286.649 521.674 288.033 525.908 286.364L526.351 284.085Z" fill="#CC39B3"/>
<path d="M525.836 270.5C524.029 267.689 521.814 265.163 519.264 263.005C515.638 260.035 511.048 265.383 514.482 268.557C517.654 271.472 521.603 273.921 525.683 273.724L525.836 270.5Z" fill="#CC39B3"/>
<path d="M524.462 257.465C522.391 253.964 519.897 250.732 517.035 247.845C514.198 245.099 510.002 249.284 512.653 252.177C515.715 255.472 519.845 258.887 524.807 260.381L524.462 257.465Z" fill="#CC39B3"/>
<path d="M521.805 242.134C520.098 239.473 518.109 237.004 515.874 234.771C513.015 231.965 508.704 236.187 511.448 239.103C514.362 242.205 518.13 245.11 522.55 246.099L521.805 242.134Z" fill="#CC39B3"/>
<path d="M519.483 227.83C517.727 225.448 515.823 223.179 513.781 221.038C511.492 218.671 507.833 221.999 509.991 224.492C512.527 227.424 515.781 230.021 519.521 230.438L519.483 227.83Z" fill="#CC39B3"/>
<path d="M517.073 214.564C515.472 211.422 513.641 208.403 511.596 205.532C509.882 203.182 506.311 205.696 507.926 208.112C510.04 211.281 512.976 214.416 516.832 215.926L517.073 214.564Z" fill="#CC39B3"/>
<path d="M515.085 196.933C515.085 196.933 513.732 194.632 511.799 191.958C510.013 189.492 506.245 192.04 507.899 194.594C509.761 197.454 512.094 199.892 514.811 200.375L515.085 196.933Z" fill="#CC39B3"/>
<path d="M514.137 185.248L512.423 176.655C511.968 174.381 508.589 174.925 508.863 177.204C509.476 181.794 511.054 186.412 514.488 189.443L514.137 185.248Z" fill="#CC39B3"/>
<path d="M515.156 160.824C514.996 160.444 514.703 160.136 514.333 159.958C513.962 159.78 513.539 159.745 513.143 159.858C512.748 159.972 512.408 160.227 512.187 160.575C511.967 160.923 511.881 161.339 511.947 161.746C512.328 164.133 512.907 166.484 513.677 168.775L515.156 160.824Z" fill="#CC39B3"/>
<path d="M509.033 353.65C510.563 353.143 512.2 353.056 513.775 353.395C515.35 353.735 516.806 354.49 517.993 355.583C522.375 359.684 516.449 366.564 511.777 362.781C509.894 361.181 508.359 359.209 507.269 356.988L509.033 353.65Z" fill="#CC39B3"/>
<path d="M516.032 338.939C516.032 338.939 521.794 337.545 526.253 341.729C530.979 346.166 524.445 353.43 519.467 349.273C517.291 347.365 515.533 345.026 514.302 342.404L516.032 338.939Z" fill="#CC39B3"/>
<path d="M520.244 326.288C521.734 325.219 523.423 324.463 525.212 324.065C527 323.667 528.85 323.635 530.651 323.971C536.128 325.069 534.764 333.377 529.249 332.669C525.808 332.168 522.551 330.798 519.784 328.688L520.244 326.288Z" fill="#CC39B3"/>
<path d="M524.122 311.616C526.814 309.591 530.14 308.595 533.499 308.811C539.228 309.31 538.615 318.035 532.88 317.673C529.485 317.461 526.253 316.14 523.679 313.912L524.122 311.616Z" fill="#CC39B3"/>
<path d="M525.453 299.339C525.453 299.339 528.493 294.638 533.346 292.717C538.73 290.581 542.186 298.669 536.955 301.156C533.669 302.71 529.709 303.495 525.502 301.788L525.453 299.339Z" fill="#CC39B3"/>
<path d="M525.645 283.86C525.645 283.86 528.717 279.028 533.63 277.183C539.108 275.124 542.607 283.25 537.344 285.858C533.899 287.561 529.764 288.406 525.787 286.199L525.645 283.86Z" fill="#CC39B3"/>
<path d="M524.615 270.358C525.78 267.224 527.405 264.281 529.435 261.627C532.338 257.943 537.985 262.176 535.29 266.02C532.814 269.551 529.506 272.785 525.431 273.471L524.615 270.358Z" fill="#CC39B3"/>
<path d="M524.193 257.443C525.201 253.491 526.695 249.681 528.641 246.099C530.607 242.683 535.794 245.511 534.03 249.036C532.015 253.072 528.991 257.492 524.642 260.32L524.193 257.443Z" fill="#CC39B3"/>
<path d="M521.017 241.42C522.2 238.374 523.717 235.47 525.541 232.761C527.797 229.466 532.798 232.695 530.733 236.099C528.487 239.811 525.322 243.545 521.077 245.434L521.017 241.42Z" fill="#CC39B3"/>
<path d="M518.486 227.753C519.097 224.856 519.889 222.001 520.858 219.204C521.953 216.09 526.669 217.595 525.738 220.763C524.643 224.486 522.764 228.203 519.538 230.142L518.486 227.753Z" fill="#CC39B3"/>
<path d="M516.728 214.306C517.574 210.878 518.672 207.517 520.014 204.252C521.153 201.572 525.207 203.203 524.177 205.927C522.84 209.496 520.693 213.219 517.287 215.569L516.728 214.306Z" fill="#CC39B3"/>
<path d="M514.094 198.141C514.094 198.141 514.608 195.522 515.545 192.353C516.41 189.432 520.814 190.58 520.096 193.539C519.297 196.834 517.906 199.936 515.496 201.298L514.094 198.141Z" fill="#CC39B3"/>
<path d="M514.707 184.666L517.687 176.43C518.475 174.233 521.762 175.299 521.121 177.528C519.834 181.976 517.599 186.314 513.738 188.784L514.707 184.666Z" fill="#CC39B3"/>
<path d="M518.421 161.686C518.421 161.686 518.886 161.313 519.598 160.725C521.05 159.517 522.945 161.626 521.575 162.922C519.192 165.094 516.451 166.836 513.475 168.072L518.421 161.686Z" fill="#CC39B3"/>
<path d="M518.223 156.915C520.004 153.27 521.988 149.728 524.166 146.306C524.291 146.07 524.326 145.797 524.264 145.537C524.202 145.277 524.048 145.049 523.831 144.895C523.613 144.741 523.347 144.671 523.082 144.7C522.817 144.728 522.572 144.852 522.391 145.049C520.639 147.454 518.919 150.974 517.615 156.146L518.223 156.915Z" fill="#CC39B3"/>
<path d="M514.827 200.513L515.463 200.447C512.724 174.853 513.88 159.072 518.667 156.014L518.322 155.465C513.25 158.721 512.045 174.293 514.827 200.513Z" fill="#444053"/>
<path d="M524.248 261.023L525.196 260.88C524.84 258.513 524.429 256.108 523.969 253.742C519.981 232.97 516.881 213.768 515.331 199.184L514.636 198.635C516.191 213.246 519.017 233.112 523.032 253.912C523.481 256.262 523.892 258.662 524.248 261.023Z" fill="#444053"/>
<path d="M479.883 390.379C480.026 390.263 494.617 379.073 507.428 357.609C514.937 345.048 520.409 331.372 523.64 317.091C527.688 299.24 527.803 278.451 524.884 258.98L524.029 259.667C530.602 303.364 518.064 337.292 506.365 356.906C493.68 378.172 479.259 389.248 479.111 389.357L479.883 390.379Z" fill="#444053"/>
<path d="M106.267 390.28C126.398 390.28 142.717 387.133 142.717 383.252C142.717 379.37 126.398 376.223 106.267 376.223C86.1362 376.223 69.8169 379.37 69.8169 383.252C69.8169 387.133 86.1362 390.28 106.267 390.28Z" fill="#CC39B3"/>
<path d="M105.654 385.832C107.998 385.832 109.898 383.34 109.898 380.265C109.898 377.19 107.998 374.697 105.654 374.697C103.309 374.697 101.409 377.19 101.409 380.265C101.409 383.34 103.309 385.832 105.654 385.832Z" fill="#3F3D56"/>
<path d="M105.654 379.023C107.998 379.023 109.898 376.531 109.898 373.456C109.898 370.38 107.998 367.888 105.654 367.888C103.309 367.888 101.409 370.38 101.409 373.456C101.409 376.531 103.309 379.023 105.654 379.023Z" fill="#3F3D56"/>
<path d="M105.654 372.22C107.998 372.22 109.898 369.727 109.898 366.652C109.898 363.577 107.998 361.084 105.654 361.084C103.309 361.084 101.409 363.577 101.409 366.652C101.409 369.727 103.309 372.22 105.654 372.22Z" fill="#3F3D56"/>
<path d="M105.654 365.412C107.998 365.412 109.898 362.919 109.898 359.844C109.898 356.769 107.998 354.276 105.654 354.276C103.309 354.276 101.409 356.769 101.409 359.844C101.409 362.919 103.309 365.412 105.654 365.412Z" fill="#3F3D56"/>
<path d="M105.654 358.602C107.998 358.602 109.898 356.11 109.898 353.035C109.898 349.96 107.998 347.467 105.654 347.467C103.309 347.467 101.409 349.96 101.409 353.035C101.409 356.11 103.309 358.602 105.654 358.602Z" fill="#3F3D56"/>
<path d="M105.654 351.799C107.998 351.799 109.898 349.306 109.898 346.231C109.898 343.156 107.998 340.664 105.654 340.664C103.309 340.664 101.409 343.156 101.409 346.231C101.409 349.306 103.309 351.799 105.654 351.799Z" fill="#3F3D56"/>
<path d="M105.654 344.991C107.998 344.991 109.898 342.498 109.898 339.423C109.898 336.348 107.998 333.855 105.654 333.855C103.309 333.855 101.409 336.348 101.409 339.423C101.409 342.498 103.309 344.991 105.654 344.991Z" fill="#3F3D56"/>
<path d="M121.537 292.837C122.119 292.098 122.648 291.318 123.12 290.504L111.969 288.67L124.018 288.758C125.176 286.235 125.808 283.502 125.875 280.726C125.941 277.95 125.442 275.19 124.407 272.614L108.228 281.026L123.148 270.044C121.753 267.617 119.873 265.504 117.627 263.837C115.381 262.17 112.817 260.985 110.093 260.357C107.37 259.728 104.547 259.669 101.8 260.183C99.0529 260.697 96.4411 261.774 94.1275 263.345C91.814 264.916 89.8484 266.949 88.3535 269.316C86.8586 271.683 85.8665 274.333 85.4391 277.102C85.0117 279.87 85.1582 282.698 85.8694 285.407C86.5807 288.116 87.8414 290.649 89.5729 292.848C88.6708 294.001 87.8941 295.247 87.256 296.566L101.732 304.105L86.3085 298.91C85.2259 302.122 84.9595 305.554 85.5333 308.896C86.1071 312.237 87.5031 315.382 89.5948 318.046C87.2348 321.053 85.7665 324.664 85.3575 328.467C84.9486 332.271 85.6156 336.113 87.2824 339.554C88.9491 342.996 91.5482 345.897 94.7825 347.927C98.0167 349.957 101.756 351.034 105.572 351.034C109.387 351.034 113.126 349.957 116.361 347.927C119.595 345.897 122.194 342.996 123.861 339.554C125.527 336.113 126.194 332.271 125.786 328.467C125.377 324.664 123.908 321.053 121.548 318.046C124.369 314.455 125.902 310.018 125.902 305.447C125.902 300.877 124.369 296.439 121.548 292.848L121.537 292.837Z" fill="#CC39B3"/>
<path opacity="0.1" d="M85.235 305.439C85.2303 310.009 86.7624 314.446 89.5838 318.035C87.2239 321.041 85.7555 324.653 85.3466 328.456C84.9376 332.26 85.6047 336.102 87.2714 339.543C88.9381 342.985 91.5372 345.886 94.7715 347.916C98.0058 349.946 101.745 351.023 105.561 351.023C109.376 351.023 113.115 349.946 116.35 347.916C119.584 345.886 122.183 342.985 123.85 339.543C125.516 336.102 126.183 332.26 125.775 328.456C125.366 324.653 123.897 321.041 121.537 318.035C124.265 314.57 85.235 303.149 85.235 305.439Z" fill="black"/>
<path d="M127.053 143.445V385.986C127.053 387.098 127.271 388.199 127.696 389.226C128.12 390.253 128.742 391.187 129.526 391.973C130.311 392.759 131.242 393.383 132.266 393.808C133.291 394.234 134.389 394.453 135.499 394.453H482.677C484.917 394.453 487.065 393.561 488.649 391.973C490.233 390.385 491.123 388.231 491.123 385.986V143.445H127.053Z" fill="white"/>
<path opacity="0.1" d="M238.156 165.157H160.6C157.984 165.157 155.862 167.283 155.862 169.906V211.621C155.862 214.244 157.984 216.371 160.6 216.371H238.156C240.773 216.371 242.894 214.244 242.894 211.621V169.906C242.894 167.283 240.773 165.157 238.156 165.157Z" fill="black"/>
<path opacity="0.1" d="M347.868 165.157H270.312C267.696 165.157 265.575 167.283 265.575 169.906V211.621C265.575 214.244 267.696 216.371 270.312 216.371H347.868C350.485 216.371 352.606 214.244 352.606 211.621V169.906C352.606 167.283 350.485 165.157 347.868 165.157Z" fill="black"/>
<path d="M236.929 165.876H161.822C159.205 165.876 157.084 168.002 157.084 170.626V210.896C157.084 213.519 159.205 215.646 161.822 215.646H236.929C239.546 215.646 241.667 213.519 241.667 210.896V170.626C241.667 168.002 239.546 165.876 236.929 165.876Z" fill="#CC39B3"/>
<path opacity="0.1" d="M381.246 215.646H456.354C458.97 215.646 461.091 213.52 461.091 210.896V170.626C461.091 168.003 458.97 165.876 456.354 165.876H381.246C378.629 165.876 376.508 168.003 376.508 170.626V210.896C376.508 213.52 378.629 215.646 381.246 215.646Z" fill="#444053"/>
<path d="M271.534 215.646H346.642C349.258 215.646 351.379 213.52 351.379 210.896V170.626C351.379 168.003 349.258 165.876 346.642 165.876H271.534C268.917 165.876 266.796 168.003 266.796 170.626V210.896C266.796 213.52 268.917 215.646 271.534 215.646Z" fill="#CC39B3"/>
<path opacity="0.1" d="M236.929 237.769H161.822C159.205 237.769 157.084 239.896 157.084 242.519V282.789C157.084 285.412 159.205 287.539 161.822 287.539H236.929C239.546 287.539 241.667 285.412 241.667 282.789V242.519C241.667 239.896 239.546 237.769 236.929 237.769Z" fill="#444053"/>
<path opacity="0.1" d="M381.246 287.539H456.354C458.97 287.539 461.091 285.412 461.091 282.789V242.518C461.091 239.895 458.97 237.769 456.354 237.769H381.246C378.629 237.769 376.508 239.895 376.508 242.518V282.789C376.508 285.412 378.629 287.539 381.246 287.539Z" fill="#444053"/>
<path opacity="0.1" d="M271.534 287.539H346.642C349.258 287.539 351.379 285.412 351.379 282.789V242.518C351.379 239.895 349.258 237.769 346.642 237.769H271.534C268.917 237.769 266.796 239.895 266.796 242.518V282.789C266.796 285.412 268.917 287.539 271.534 287.539Z" fill="#444053"/>
<path opacity="0.1" d="M236.929 309.662H161.822C159.205 309.662 157.084 311.788 157.084 314.411V354.682C157.084 357.305 159.205 359.432 161.822 359.432H236.929C239.546 359.432 241.667 357.305 241.667 354.682V314.411C241.667 311.788 239.546 309.662 236.929 309.662Z" fill="#444053"/>
<path opacity="0.1" d="M381.246 359.438H456.354C458.97 359.438 461.091 357.311 461.091 354.688V314.417C461.091 311.794 458.97 309.668 456.354 309.668H381.246C378.629 309.668 376.508 311.794 376.508 314.417V354.688C376.508 357.311 378.629 359.438 381.246 359.438Z" fill="#444053"/>
<path opacity="0.1" d="M271.534 359.438H346.642C349.258 359.438 351.379 357.311 351.379 354.688V314.417C351.379 311.794 349.258 309.668 346.642 309.668H271.534C268.917 309.668 266.796 311.794 266.796 314.417V354.688C266.796 357.311 268.917 359.438 271.534 359.438Z" fill="#444053"/>
<path d="M127.053 100.611V144.676H491.123V100.611C491.123 99.4983 490.905 98.3967 490.481 97.3688C490.057 96.3409 489.435 95.4069 488.651 94.6201C487.866 93.8332 486.935 93.2091 485.91 92.7832C484.885 92.3574 483.786 92.1382 482.677 92.1382H135.499C134.389 92.1382 133.29 92.3574 132.265 92.7832C131.24 93.2091 130.309 93.8332 129.525 94.6201C128.74 95.4069 128.118 96.3409 127.694 97.3688C127.27 98.3967 127.052 99.4983 127.053 100.611ZM217.151 113.646C215.818 113.646 214.514 113.25 213.406 112.507C212.297 111.764 211.433 110.709 210.922 109.474C210.412 108.238 210.279 106.879 210.539 105.568C210.799 104.257 211.441 103.053 212.384 102.107C213.327 101.162 214.528 100.518 215.836 100.257C217.144 99.9966 218.5 100.13 219.732 100.642C220.964 101.154 222.017 102.02 222.757 103.132C223.498 104.243 223.894 105.55 223.894 106.887C223.894 108.68 223.183 110.399 221.919 111.666C220.655 112.934 218.94 113.646 217.151 113.646ZM401.024 113.646C399.69 113.646 398.387 113.25 397.278 112.507C396.169 111.764 395.305 110.709 394.795 109.474C394.284 108.238 394.151 106.879 394.411 105.568C394.671 104.257 395.313 103.053 396.256 102.107C397.199 101.162 398.401 100.518 399.709 100.257C401.016 99.9966 402.372 100.13 403.604 100.642C404.836 101.154 405.889 102.02 406.63 103.132C407.371 104.243 407.766 105.55 407.766 106.887C407.766 107.775 407.591 108.655 407.252 109.476C406.912 110.297 406.415 111.043 405.788 111.67C405.16 112.298 404.416 112.796 403.597 113.135C402.777 113.474 401.899 113.648 401.013 113.646H401.024Z" fill="#CC39B3"/>
<path opacity="0.1" d="M217.151 98.8975C215.575 98.8964 214.034 99.364 212.722 100.241C211.411 101.118 210.389 102.366 209.785 103.826C209.181 105.285 209.022 106.892 209.329 108.442C209.636 109.992 210.395 111.416 211.509 112.534C212.623 113.652 214.043 114.413 215.589 114.722C217.135 115.031 218.738 114.873 220.194 114.268C221.651 113.664 222.896 112.64 223.772 111.326C224.648 110.012 225.115 108.467 225.115 106.887C225.116 105.838 224.91 104.799 224.511 103.83C224.111 102.861 223.524 101.98 222.785 101.238C222.045 100.496 221.167 99.9073 220.2 99.5057C219.234 99.1041 218.198 98.8975 217.151 98.8975ZM217.151 113.646C215.818 113.646 214.514 113.25 213.406 112.507C212.297 111.764 211.433 110.709 210.922 109.473C210.412 108.238 210.278 106.879 210.539 105.568C210.799 104.257 211.441 103.053 212.384 102.107C213.327 101.162 214.528 100.518 215.836 100.257C217.144 99.9965 218.5 100.13 219.732 100.642C220.964 101.154 222.017 102.02 222.757 103.131C223.498 104.243 223.894 105.55 223.894 106.887C223.894 108.679 223.183 110.399 221.919 111.666C220.655 112.934 218.94 113.646 217.151 113.646Z" fill="black"/>
<path opacity="0.1" d="M401.013 98.8975C399.437 98.8975 397.896 99.366 396.585 100.244C395.275 101.122 394.254 102.37 393.65 103.829C393.047 105.289 392.889 106.896 393.197 108.445C393.504 109.995 394.263 111.419 395.378 112.536C396.492 113.653 397.912 114.414 399.458 114.723C401.004 115.031 402.606 114.873 404.063 114.268C405.519 113.663 406.763 112.639 407.639 111.325C408.515 110.012 408.982 108.467 408.982 106.887C408.982 104.768 408.142 102.736 406.648 101.237C405.153 99.7392 403.126 98.8975 401.013 98.8975ZM401.013 113.646C399.679 113.646 398.376 113.25 397.267 112.507C396.158 111.764 395.294 110.709 394.784 109.473C394.274 108.238 394.14 106.879 394.4 105.568C394.66 104.257 395.302 103.053 396.245 102.107C397.188 101.162 398.39 100.518 399.698 100.257C401.005 99.9965 402.361 100.13 403.593 100.642C404.825 101.154 405.878 102.02 406.619 103.131C407.36 104.243 407.755 105.55 407.755 106.887C407.755 108.679 407.045 110.399 405.78 111.666C404.516 112.934 402.801 113.646 401.013 113.646Z" fill="black"/>
<path opacity="0.1" d="M565.841 238.972C570.46 238.972 574.205 235.218 574.205 230.587C574.205 225.956 570.46 222.202 565.841 222.202C561.222 222.202 557.478 225.956 557.478 230.587C557.478 235.218 561.222 238.972 565.841 238.972Z" fill="#CC39B3"/>
<path opacity="0.1" d="M595.763 207.25C603.507 207.25 609.784 200.957 609.784 193.194C609.784 185.43 603.507 179.137 595.763 179.137C588.019 179.137 581.741 185.43 581.741 193.194C581.741 200.957 588.019 207.25 595.763 207.25Z" fill="#CC39B3"/>
<path opacity="0.1" d="M577.201 275.459C584.945 275.459 591.222 269.165 591.222 261.402C591.222 253.639 584.945 247.345 577.201 247.345C569.457 247.345 563.18 253.639 563.18 261.402C563.18 269.165 569.457 275.459 577.201 275.459Z" fill="#CC39B3"/>
<path opacity="0.1" d="M19.8546 209.65C30.8199 209.65 39.7091 200.738 39.7091 189.745C39.7091 178.752 30.8199 169.84 19.8546 169.84C8.88919 169.84 0 178.752 0 189.745C0 200.738 8.88919 209.65 19.8546 209.65Z" fill="#CC39B3"/>
<path d="M506.99 406.533C505.743 405.592 504.376 404.822 502.926 404.243C502.815 404.186 502.694 404.154 502.57 404.15C499.569 401.99 496.764 399.569 494.19 396.913C494.737 396.474 495.241 396.045 495.778 395.622C492.492 394.052 490.668 390.455 488.893 387.21C484.201 378.583 478.018 370.86 470.633 364.401C470.452 363.704 469.395 363.852 468.831 363.402C468.647 363.224 468.513 363.001 468.443 362.755C468.372 362.51 468.368 362.249 468.431 362.001C468.518 361.496 468.748 361.029 468.874 360.535C469.176 359.377 468.913 358.158 468.781 356.966C468.65 355.775 468.705 354.446 469.493 353.556C469.745 353.265 470.068 353.04 470.315 352.744C470.574 352.394 470.757 351.994 470.851 351.569C470.945 351.145 470.949 350.705 470.863 350.278C470.803 349.423 470.619 348.581 470.315 347.78C472.999 340.459 475.681 333.125 478.361 325.778C480.239 320.649 482.135 315.411 482.326 309.942C482.48 305.549 481.351 300.986 478.7 297.631C479.182 297.516 479.664 297.395 480.141 297.258C477.008 293.096 476.668 287.583 476.586 282.339C476.542 279.725 476.453 277.11 476.318 274.492C477.227 274.893 478.147 275.25 479.089 275.557L479.966 275.827C481.389 276.244 482.84 276.556 484.309 276.76C484.955 276.853 485.613 276.925 486.264 276.969C485.322 274.604 484.382 272.235 483.444 269.863C482.956 268.814 482.659 267.685 482.567 266.53V266.311C482.567 266.179 482.567 266.047 482.595 265.915C482.632 265.601 482.704 265.292 482.808 264.993C482.857 264.845 482.913 264.7 482.978 264.559C483.173 264.126 483.408 263.713 483.679 263.324C483.876 263.022 484.095 262.731 484.314 262.434C485.131 261.479 485.794 260.403 486.281 259.244C486.473 258.657 486.575 258.044 486.582 257.426C486.593 256.8 486.537 256.174 486.418 255.559C486.341 255.153 486.242 254.741 486.133 254.346C486.062 254.099 485.985 253.852 485.908 253.61L485.843 253.412C485.782 253.226 485.722 253.045 485.656 252.863L485.591 252.677C485.519 252.479 485.448 252.287 485.372 252.089L485.328 251.974C484.282 249.278 482.89 246.708 482.041 243.935C481.818 243.197 481.635 242.447 481.494 241.689C481.455 241.497 481.428 241.299 481.395 241.107C481.362 240.915 481.346 240.778 481.324 240.613C481.302 240.448 481.275 240.229 481.253 240.037L481.203 239.487C481.203 239.312 481.176 239.136 481.165 238.938C481.165 238.603 481.132 238.268 481.127 237.934C481.127 237.813 481.127 237.697 481.127 237.577C481.127 237.324 481.127 237.066 481.127 236.813C481.127 236.676 481.127 236.539 481.127 236.407C481.127 236.154 481.165 235.902 481.187 235.655C481.187 235.534 481.187 235.413 481.225 235.298C481.262 234.932 481.311 234.566 481.373 234.2C481.428 233.876 481.488 233.546 481.554 233.217C481.752 232.315 481.855 231.395 481.861 230.471C481.861 230.296 481.861 230.114 481.822 229.922C481.784 229.73 481.779 229.626 481.751 229.483C481.749 229.439 481.749 229.395 481.751 229.351C481.751 229.252 481.702 229.153 481.68 229.055C481.658 228.956 481.653 228.961 481.636 228.917C481.62 228.873 481.576 228.725 481.543 228.632C481.51 228.539 481.516 228.549 481.499 228.506C481.483 228.462 481.423 228.308 481.379 228.215L481.34 228.116C481.286 227.995 481.225 227.88 481.165 227.764C480.953 227.364 480.707 226.982 480.431 226.622C478.629 224.25 475.633 222.444 473.985 219.83C473.022 218.136 472.395 216.271 472.139 214.339C472.057 213.9 471.985 213.46 471.909 213.027C471.832 212.593 471.766 212.165 471.69 211.736C471.64 211.473 471.591 211.187 471.536 210.946L471.503 210.775C471.46 210.567 471.416 210.353 471.367 210.144L471.334 209.996C471.284 209.776 471.235 209.556 471.18 209.337L471.147 209.221C471.093 208.991 471.032 208.76 470.972 208.53C470.97 208.502 470.97 208.475 470.972 208.447C470.906 208.206 470.835 207.964 470.764 207.722V207.673C470.687 207.42 470.611 207.173 470.529 206.926C470.446 206.674 470.359 206.416 470.266 206.163C470.167 205.905 470.074 205.647 469.97 205.394C469.281 203.625 468.348 201.962 467.198 200.452C464.69 197.224 460.812 194.906 456.792 195.06C454.634 195.143 452.564 195.9 450.532 196.653L445.257 198.602L446.73 197.921C445.197 198.058 443.63 198.201 442.245 198.882C440.859 199.563 439.687 200.897 439.643 202.457C439.616 203.363 439.972 204.263 439.857 205.164C439.665 206.652 438.301 207.662 437.595 208.98C437.181 209.774 436.991 210.666 437.047 211.561V211.604C437.047 211.709 437.047 211.808 437.047 211.912C437.044 211.941 437.044 211.971 437.047 212V212.176C434.856 211.22 432.665 210.226 430.474 209.161C426.854 207.376 423.19 205.279 420.933 201.896C420.21 200.798 419.652 199.612 418.934 198.525C418.111 197.355 417.195 196.253 416.195 195.23L409.475 187.938C408.96 188.91 409.623 190.058 410.143 191.024C410.696 192.038 411.114 193.12 411.387 194.242C411.519 194.608 411.507 195.01 411.354 195.368C411.109 195.662 410.792 195.888 410.434 196.021C409.82 196.408 409.351 196.989 409.1 197.671C408.85 198.353 408.831 199.099 409.048 199.793C409.286 200.477 409.698 201.086 410.243 201.562C410.787 202.037 411.446 202.363 412.153 202.506C412.628 202.56 413.093 202.675 413.539 202.846C414.35 203.247 414.733 204.181 415.314 204.878C416.371 206.152 418.052 206.63 419.657 207.047C422.144 209.924 424.729 212.681 427.215 215.558C430.978 219.912 434.829 224.343 439.736 227.287C440.246 227.594 440.766 227.88 441.292 228.143C441.292 228.231 441.292 228.319 441.264 228.407C441.127 229.056 441.21 229.732 441.5 230.329C441.938 231.026 442.842 231.235 443.647 231.377L447.36 232.042C447.327 232.524 447.267 233.005 447.18 233.48C447.13 233.771 447.07 234.057 447.015 234.348L446.95 234.721C446.95 234.721 446.95 234.76 446.95 234.776C446.95 234.793 446.95 234.974 446.911 235.078C446.873 235.183 446.911 235.15 446.911 235.183V235.446V235.556C446.911 235.671 446.911 235.792 446.911 235.913C447.037 237.373 448.007 238.581 448.976 239.696L449.496 240.328C448.671 241.37 448.092 242.586 447.804 243.886C447.639 244.701 447.558 245.531 447.563 246.362C447.066 246.837 446.691 247.425 446.468 248.075C446.208 248.975 446.111 249.914 446.183 250.848V250.914C446.183 251.26 446.183 251.6 446.183 251.946C446.119 253.258 446.336 254.569 446.818 255.79C446.867 255.889 446.922 255.977 446.971 256.07C446.15 257.684 444.781 258.942 443.8 260.463C442.809 262.151 442.36 264.105 442.516 266.059C442.672 268.012 443.424 269.87 444.671 271.379C445.421 272.246 446.385 273.081 446.473 274.234C446.46 274.757 446.409 275.278 446.32 275.794C446.232 277.035 446.802 278.21 447.108 279.412C447.366 280.411 447.377 281.608 446.807 282.41C446.231 283.253 445.966 284.27 446.057 285.287C446.336 286.841 445.695 288.395 445.586 289.971C445.536 290.647 445.586 291.333 445.525 292.008C445.447 292.655 445.313 293.295 445.126 293.919C445.126 293.985 445.093 294.056 445.071 294.128C443.718 294.726 442.376 295.347 441.084 296.066C440.385 296.378 439.808 296.91 439.44 297.582C439.222 298.256 439.192 298.978 439.353 299.668L440.519 307.806L440.317 307.718C440.408 309.05 440.503 310.388 440.602 311.732C440.673 312.748 440.766 313.824 441.368 314.637C441.675 314.964 441.952 315.319 442.195 315.696C442.655 316.63 442.108 317.717 441.702 318.672C441.297 319.628 441.155 320.984 442.048 321.5C442.513 321.825 443.015 322.094 443.543 322.302C442.447 326.881 443.455 331.68 444.474 336.276C445.252 339.791 446.031 343.301 446.813 346.808C447.118 348.298 447.29 349.812 447.327 351.332C447.327 351.552 447.327 351.772 447.327 351.991C447.437 354.082 447.805 356.152 448.423 358.152C449.639 362.259 448.472 367.19 448.856 371.665C449.11 373.818 449.539 375.946 450.137 378.029C452.783 388.55 455.143 398.862 456.053 409.679C457.025 410.921 458.345 411.844 459.843 412.331C459.733 413.66 459.881 415.181 459.843 415.955C459.841 416.596 459.741 417.234 459.547 417.844C459.081 419.063 457.904 419.859 456.682 420.288C456.299 420.42 455.91 420.524 455.516 420.617L455.954 420.244C453.45 419.698 450.832 420.16 448.664 421.529C448.323 421.703 448.021 421.943 447.773 422.235C447.526 422.527 447.339 422.866 447.223 423.231C447.133 423.928 447.314 424.634 447.727 425.202C448.933 426.972 450.73 428.251 452.794 428.81C454.833 429.348 456.929 429.641 459.038 429.683L462.904 429.908C462.773 430.129 462.726 430.391 462.773 430.644C462.819 430.898 462.955 431.126 463.156 431.286C463.571 431.59 464.063 431.769 464.575 431.802C466.155 432.037 467.759 432.061 469.345 431.874C469.743 431.862 470.127 431.724 470.441 431.478C470.514 431.412 470.572 431.331 470.612 431.241C470.652 431.15 470.672 431.053 470.672 430.954C470.672 430.855 470.652 430.757 470.612 430.667C470.572 430.577 470.514 430.496 470.441 430.43C470.673 430.422 470.897 430.345 471.085 430.208C471.272 430.071 471.415 429.88 471.493 429.661C471.644 429.214 471.693 428.74 471.635 428.272C471.531 426.465 471.372 423.84 470.435 422.232C470.273 421.939 470.02 421.707 469.715 421.572C469.409 421.438 469.068 421.407 468.743 421.485C468.137 418.27 467.771 415.014 467.648 411.744C468.613 411.381 469.553 410.955 470.463 410.47C467.774 406.116 467.724 400.586 468.546 395.524C468.872 393.925 469.111 392.31 469.263 390.686C469.444 387.446 468.957 383.778 467.166 381.099C470.43 383.18 473.32 385.802 475.71 388.852C479.495 393.794 481.8 399.779 486.44 403.897C487.049 403.301 487.666 402.708 488.291 402.118C489.269 403.78 490.195 405.477 491.068 407.208C491.752 408.482 492.293 409.828 492.678 411.222C493.105 413.355 493.155 415.546 492.826 417.696C492.698 418.838 492.543 419.975 492.36 421.106C492.287 421.59 492.175 422.067 492.026 422.534C492.024 422.385 491.989 422.238 491.922 422.105C491.632 421.595 490.827 421.825 490.389 422.177C489.608 422.764 488.964 423.513 488.499 424.373C488.243 424.793 488.125 425.282 488.159 425.773C488.23 426.069 488.365 426.345 488.555 426.582C488.744 426.819 488.983 427.012 489.255 427.146C491.287 428.337 493.839 427.475 496.019 426.597C496.621 426.38 497.195 426.09 497.728 425.735C498.823 424.944 499.42 423.643 500.51 422.874C501.092 422.554 501.654 422.198 502.192 421.809C503.205 420.881 503.287 419.316 504.027 418.141C505.254 416.115 507.998 415.593 509.071 413.446C510.314 411.074 508.863 408.081 506.99 406.533Z" fill="url(#paint0_linear)"/>
<path d="M459.771 416.197C459.768 416.832 459.666 417.461 459.47 418.064C459.01 419.267 457.827 420.052 456.611 420.475C455.395 420.898 454.103 421.024 452.865 421.392C452.321 421.516 451.818 421.777 451.402 422.15C450.307 423.248 450.964 425.224 452.246 426.043C453.528 426.861 455.16 426.833 456.682 426.729C459.913 426.54 463.123 426.083 466.278 425.362C467.418 425.093 468.748 424.566 468.929 423.407C468.963 423.039 468.934 422.667 468.842 422.309C468.064 418.378 467.652 414.384 467.609 410.377C467.609 410.113 461.256 409.943 460.664 410.328C459.339 411.201 459.843 414.847 459.771 416.197Z" fill="#A1616A"/>
<path d="M488.099 402.212C489.151 403.958 490.138 405.739 491.062 407.554C491.746 408.809 492.287 410.137 492.672 411.513C493.097 413.617 493.147 415.779 492.82 417.899C492.693 419.023 492.536 420.145 492.349 421.265C492.169 422.364 491.878 423.61 490.942 424.241C491.359 424.49 491.827 424.641 492.31 424.683C492.794 424.726 493.281 424.66 493.735 424.489C494.639 424.138 495.472 423.626 496.194 422.979C500.888 419.096 504.41 413.457 504.585 407.357C504.635 406.88 504.545 406.4 504.328 405.973C504.106 405.675 503.827 405.424 503.506 405.237C500.004 402.846 496.75 400.106 493.795 397.061C493.622 396.827 493.368 396.665 493.083 396.605C492.859 396.607 492.639 396.669 492.448 396.787C490.646 397.693 487.634 398.983 486.883 401.042C487.396 401.301 487.82 401.709 488.099 402.212Z" fill="#A1616A"/>
<path d="M466.191 422.572C462.247 424.219 457.975 424.812 453.708 425.378C453.161 425.444 452.574 425.488 452.213 425.103C452.069 424.924 451.983 424.705 451.966 424.476C451.948 424.247 452 424.018 452.114 423.818C452.347 423.422 452.658 423.078 453.029 422.808L455.861 420.431C453.392 419.905 450.816 420.35 448.664 421.672C447.987 422.009 447.472 422.601 447.229 423.319C447.138 424.01 447.318 424.709 447.733 425.268C448.945 427.019 450.739 428.28 452.794 428.826C454.832 429.356 456.926 429.645 459.032 429.688L462.866 429.908C462.734 430.127 462.687 430.387 462.735 430.638C462.782 430.89 462.921 431.114 463.123 431.27C463.54 431.574 464.033 431.755 464.547 431.791C466.126 432.022 467.728 432.044 469.313 431.857C469.71 431.85 470.095 431.714 470.408 431.467C470.481 431.402 470.539 431.323 470.578 431.234C470.618 431.145 470.639 431.049 470.639 430.951C470.639 430.854 470.618 430.757 470.578 430.668C470.539 430.579 470.481 430.5 470.408 430.435C470.639 430.428 470.863 430.352 471.051 430.215C471.238 430.079 471.381 429.89 471.46 429.672C471.606 429.232 471.655 428.765 471.602 428.305C471.498 426.526 471.339 423.912 470.403 422.358C469.466 420.804 467.516 422.023 466.191 422.572Z" fill="#3F3D56"/>
<path d="M506.891 406.873C505.642 405.945 504.275 405.186 502.827 404.617C502.769 404.572 502.702 404.541 502.631 404.527C502.559 404.512 502.486 404.513 502.415 404.531C502.344 404.549 502.279 404.583 502.223 404.63C502.167 404.677 502.123 404.737 502.093 404.803C499.507 408.322 497.486 412.226 496.107 416.373C495.323 418.734 494.704 421.249 493.116 423.159C492.908 423.412 492.568 423.67 492.284 423.522C491.873 423.313 492.125 422.649 491.895 422.248C491.61 421.743 490.832 421.973 490.367 422.319C489.584 422.902 488.94 423.653 488.482 424.516C488.22 424.925 488.101 425.41 488.143 425.894C488.211 426.184 488.342 426.455 488.527 426.689C488.712 426.922 488.945 427.112 489.211 427.245C491.243 428.425 493.795 427.574 495.97 426.696C496.57 426.483 497.142 426.197 497.673 425.845C498.769 425.07 499.366 423.78 500.455 423.028C501.037 422.711 501.599 422.359 502.137 421.973C503.145 421.056 503.232 419.514 503.966 418.349C505.193 416.356 507.937 415.84 509.011 413.721C510.21 411.354 508.764 408.4 506.891 406.873Z" fill="#3F3D56"/>
<path d="M476.323 297.192C480.628 300.432 482.436 306.192 482.244 311.584C482.052 316.976 480.163 322.148 478.29 327.206C475.606 334.443 472.926 341.678 470.249 348.911C470.548 349.705 470.732 350.537 470.797 351.382C470.882 351.803 470.877 352.236 470.782 352.655C470.688 353.073 470.506 353.466 470.249 353.809C469.997 354.1 469.701 354.325 469.428 354.611C468.639 355.489 468.59 356.807 468.716 357.977C468.842 359.146 469.11 360.354 468.809 361.497C468.683 361.985 468.453 362.446 468.365 362.941C468.304 363.186 468.309 363.443 468.379 363.687C468.449 363.93 468.582 364.15 468.765 364.324C469.313 364.764 470.408 364.621 470.567 365.313C477.931 371.672 484.107 379.295 488.806 387.826C490.58 391.027 492.371 394.574 495.685 396.122C492.456 398.687 489.361 401.415 486.412 404.298C481.784 400.235 479.478 394.321 475.699 389.473C473.307 386.458 470.421 383.871 467.166 381.824C468.957 384.465 469.444 388.089 469.263 391.279C469.112 392.882 468.872 394.475 468.546 396.051C467.697 401.048 467.774 406.484 470.463 410.8C467.593 412.293 464.296 413.402 461.091 412.958C459.081 412.671 457.255 411.626 455.987 410.036C455.078 399.362 452.701 389.171 450.077 378.809C449.476 376.742 449.049 374.628 448.801 372.489C448.417 368.097 449.584 363.21 448.363 359.157C447.747 357.187 447.379 355.146 447.267 353.084C447.267 352.865 447.267 352.651 447.267 352.431C447.23 350.932 447.058 349.44 446.752 347.972L444.419 337.583C443.4 333.042 442.382 328.309 443.483 323.79C442.957 323.587 442.458 323.323 441.993 323.005C441.1 322.494 441.242 321.16 441.648 320.216C442.053 319.271 442.595 318.2 442.141 317.278C441.898 316.903 441.621 316.552 441.314 316.229C440.711 315.427 440.618 314.368 440.547 313.368L440.262 309.404C441.915 310.061 443.293 311.269 444.162 312.825C442.004 309.475 443.066 304.698 444.66 301.041C444.956 299.921 445.606 298.927 446.512 298.207C447.418 297.488 448.533 297.082 449.688 297.049C458.468 295.545 469.192 291.816 476.323 297.192Z" fill="#3F3D56"/>
<path opacity="0.1" d="M472.32 319.738C472.32 319.738 468.004 322.626 468.004 324.789C468.004 326.953 466.908 346.424 466.908 346.424V360.151C466.908 360.151 467.626 367.366 466.908 369.167C466.191 370.968 466.908 379.265 466.908 380.347C466.908 381.429 468.004 369.167 468.004 369.167V356.165L469.099 326.59L472.32 319.738Z" fill="black"/>
<path d="M448.248 219.725L445.734 218.742C440.596 216.678 435.453 214.608 430.48 212.186C426.865 210.424 423.201 208.343 420.95 205.021C420.227 203.922 419.668 202.769 418.95 201.688C418.126 200.53 417.21 199.442 416.212 198.431L409.497 191.238C408.982 192.199 409.639 193.33 410.165 194.28C410.715 195.281 411.133 196.35 411.408 197.46C411.538 197.817 411.524 198.21 411.37 198.558C411.128 198.852 410.813 199.075 410.455 199.206C409.844 199.582 409.375 200.152 409.124 200.825C408.873 201.499 408.854 202.237 409.07 202.923C409.31 203.601 409.722 204.204 410.266 204.674C410.809 205.144 411.466 205.464 412.17 205.603C412.643 205.658 413.109 205.77 413.555 205.938C414.366 206.338 414.75 207.255 415.33 207.942C416.387 209.199 418.069 209.677 419.668 210.083C422.155 212.922 424.734 215.64 427.221 218.479C430.978 222.773 434.823 227.144 439.731 230.054C441.473 231.122 443.382 231.89 445.378 232.327C446.037 228.064 446.997 223.853 448.248 219.725Z" fill="#A1616A"/>
<path opacity="0.15" d="M448.248 219.725L445.734 218.742C440.596 216.678 435.453 214.608 430.48 212.186C426.865 210.424 423.201 208.343 420.95 205.021C420.227 203.922 419.668 202.769 418.95 201.688C418.126 200.53 417.21 199.442 416.212 198.431L409.497 191.238C408.982 192.199 409.639 193.33 410.165 194.28C410.715 195.281 411.133 196.35 411.408 197.46C411.538 197.817 411.524 198.21 411.37 198.558C411.128 198.852 410.813 199.075 410.455 199.206C409.844 199.582 409.375 200.152 409.124 200.825C408.873 201.499 408.854 202.237 409.07 202.923C409.31 203.601 409.722 204.204 410.266 204.674C410.809 205.144 411.466 205.464 412.17 205.603C412.643 205.658 413.109 205.77 413.555 205.938C414.366 206.338 414.75 207.255 415.33 207.942C416.387 209.199 418.069 209.677 419.668 210.083C422.155 212.922 424.734 215.64 427.221 218.479C430.978 222.773 434.823 227.144 439.731 230.054C441.473 231.122 443.382 231.89 445.378 232.327C446.037 228.064 446.997 223.853 448.248 219.725Z" fill="black"/>
<path d="M443.647 234.063C442.842 233.92 441.938 233.722 441.5 233.03C441.21 232.444 441.127 231.776 441.264 231.136C441.7 226.997 442.619 222.924 444.003 219.001C445.224 221.269 447.629 222.592 449.907 223.784C451.941 224.917 454.062 225.887 456.25 226.683C455.702 226.507 454.36 234.952 453.604 235.468C452.651 236.138 450.351 235.232 449.294 235.051L443.647 234.063Z" fill="#CC39B3"/>
<path d="M449.48 231.57C455.838 231.57 460.993 226.402 460.993 220.028C460.993 213.653 455.838 208.486 449.48 208.486C443.122 208.486 437.967 213.653 437.967 220.028C437.967 226.402 443.122 231.57 449.48 231.57Z" fill="#A1616A"/>
<path d="M447.141 229.582C447.141 229.582 454.694 236.072 451.457 240.399C448.22 244.726 446.418 247.614 450.734 247.976C455.05 248.339 469.439 240.761 469.439 240.761C469.439 240.761 456.129 229.944 458.287 223.454C460.445 216.964 447.141 229.582 447.141 229.582Z" fill="#FBBEBE"/>
<path d="M454.388 239.74C452.778 240.128 451.307 240.956 450.14 242.134C448.972 243.311 448.154 244.79 447.777 246.406C446.928 250.294 448.73 254.642 447.032 258.222C446.232 259.925 444.748 261.199 443.745 262.796C442.758 264.46 442.312 266.389 442.467 268.319C442.622 270.248 443.371 272.081 444.611 273.564C445.361 274.421 446.325 275.25 446.413 276.381C446.4 276.897 446.349 277.411 446.259 277.919C446.172 279.143 446.741 280.307 447.048 281.493C447.306 282.476 447.317 283.657 446.747 284.447C446.172 285.276 445.909 286.281 446.002 287.286C446.276 288.824 445.635 290.355 445.526 291.909C445.476 292.579 445.525 293.249 445.465 293.919C445.386 294.557 445.254 295.187 445.071 295.803L444.107 299.366C449.332 301.606 454.886 302.414 460.538 302.309C465.599 302.21 470.589 301.162 475.54 300.113C477.046 299.794 478.553 299.476 480.037 299.064C476.904 294.957 476.57 289.515 476.482 284.348C476.346 275.734 475.704 267.135 474.56 258.596C476.077 255.724 476.751 252.523 477.375 249.333C477.655 248.048 477.773 246.732 477.726 245.418C477.572 242.672 476.312 240.064 475.08 237.577C473.952 235.303 472.73 232.909 470.216 231.926C469.609 231.67 468.947 231.573 468.293 231.645C467.638 231.717 467.012 231.956 466.476 232.338C464.575 233.777 465.139 236.259 464.652 238.378C464.011 241.124 461.486 243.095 458.797 243.869C456.79 244.396 454.71 244.591 452.64 244.446C452.438 244.434 452.242 244.366 452.076 244.25C451.909 244.133 451.778 243.972 451.697 243.786C451.617 243.599 451.59 243.393 451.619 243.192C451.648 242.99 451.732 242.801 451.863 242.645C452.744 241.667 453.632 240.673 454.388 239.74Z" fill="#CC39B3"/>
<path d="M463.304 284.354C459.043 287.846 454.733 291.371 449.814 293.842C446.928 295.292 443.86 296.363 441.051 297.922C440.356 298.228 439.779 298.752 439.408 299.416C439.184 300.08 439.153 300.794 439.32 301.475L440.569 310.107C440.914 312.446 443.154 313.95 444.95 315.444C444.852 314.659 444.693 314.049 445.065 313.352C445.195 313.134 445.335 312.923 445.487 312.72C446.254 311.556 446.281 310.046 446.095 308.662C445.909 307.279 445.547 305.917 445.619 304.5C445.603 304.266 445.649 304.031 445.75 303.82C445.852 303.608 446.007 303.426 446.199 303.292C452.317 300.344 458.906 298.081 465.09 295.281C466.726 294.618 468.267 293.741 469.674 292.673C471.088 291.586 472.039 290.003 472.336 288.242C472.364 288.127 472.369 288.009 472.35 287.893C472.332 287.777 472.289 287.665 472.226 287.566C472.102 287.43 471.94 287.334 471.761 287.292C468.989 286.281 466.065 285.353 463.304 284.354Z" fill="#A1616A"/>
<path opacity="0.1" d="M451.468 248.136C449.354 248.493 447.13 249.591 446.413 251.622C446.155 252.513 446.058 253.443 446.128 254.368C446.062 255.668 446.281 256.967 446.769 258.173C447.129 258.839 447.559 259.465 448.05 260.04C453.111 266.541 455.653 274.706 460.582 281.312C461.02 281.894 461.82 282.652 461.573 283.338C461.484 283.516 461.405 283.699 461.338 283.887C461.315 284.065 461.337 284.245 461.4 284.413C461.463 284.58 461.566 284.73 461.699 284.848C461.962 285.09 462.166 285.388 462.296 285.721C462.39 286.067 462.159 286.517 461.803 286.49C462.395 288.324 464.208 289.395 465.928 290.262C468.787 291.706 471.953 292.843 475.135 292.53C475.732 290.13 476.564 287.418 476.23 284.974C475.881 283.108 475.262 281.303 474.395 279.615L472.254 274.926C470.43 270.923 468.59 266.893 466.048 263.307C465.133 262.172 464.362 260.927 463.753 259.601C463.102 257.904 461.311 256.712 460.226 255.257C458.616 253.061 456.94 250.865 454.782 249.278C453.916 248.608 452.525 247.96 451.468 248.136Z" fill="black"/>
<path d="M451.468 247.054C449.354 247.411 447.13 248.509 446.413 250.535C446.156 251.426 446.059 252.356 446.128 253.281C446.062 254.581 446.281 255.88 446.769 257.086C447.129 257.752 447.559 258.378 448.05 258.953C453.111 265.454 455.653 273.619 460.582 280.225C461.02 280.807 461.82 281.565 461.573 282.251C461.484 282.429 461.405 282.612 461.338 282.8C461.316 282.978 461.337 283.158 461.4 283.326C461.463 283.493 461.566 283.643 461.699 283.761C461.962 284.003 462.166 284.301 462.296 284.634C462.39 284.98 462.16 285.43 461.803 285.403C462.395 287.237 464.208 288.308 465.928 289.175C468.787 290.619 471.953 291.756 475.135 291.443C475.732 289.043 476.564 286.331 476.23 283.887C475.881 282.021 475.263 280.216 474.395 278.528L472.254 273.839C470.43 269.836 468.59 265.806 466.048 262.22C465.132 261.084 464.361 259.837 463.753 258.508C463.102 256.817 461.311 255.625 460.226 254.17C458.616 251.974 456.94 249.778 454.782 248.191C453.916 247.526 452.525 246.878 451.468 247.054Z" fill="#CC39B3"/>
<path d="M446.643 201.068C445.115 201.199 443.543 201.342 442.162 202.012C440.782 202.682 439.605 204 439.561 205.537C439.561 206.432 439.889 207.322 439.774 208.206C439.583 209.677 438.219 210.671 437.518 211.973C436.291 214.235 437.244 217.112 438.832 219.111C440.421 221.109 442.573 222.647 444.205 224.635C445.493 226.224 446.424 228.072 446.937 230.054C447.449 232.036 447.53 234.106 447.174 236.122C446.971 236.905 446.874 237.712 446.884 238.521C447.01 239.96 447.979 241.151 448.943 242.25C453.632 247.747 457.972 253.535 461.935 259.579C463.124 261.335 464.193 263.169 465.134 265.07C466.065 267.036 466.777 269.133 468.069 270.874C469.263 272.368 470.725 273.626 472.38 274.58C476.555 277.161 481.29 278.693 486.182 279.044L483.361 272.032C482.863 270.786 482.348 269.474 482.512 268.139C482.825 265.614 485.366 263.955 486.193 261.55C486.741 260.002 486.494 258.294 486.045 256.718C485.048 253.166 483.055 249.97 481.981 246.439C481.04 243.343 480.83 240.071 481.368 236.879C481.603 235.474 481.987 234.063 481.811 232.651C481.291 228.357 476.269 226.304 473.946 222.663C472.445 220.324 472.155 217.441 471.651 214.707C470.923 210.715 469.625 206.729 467.116 203.544C464.608 200.359 460.741 198.053 456.71 198.223C454.552 198.306 452.487 199.058 450.455 199.794L445.175 201.721" fill="#3F3D56"/>
<g opacity="0.1">
<path opacity="0.1" d="M470.211 210.034C470.665 212.499 470.95 215.086 472.1 217.288C471.942 216.431 471.81 215.569 471.651 214.723C471.279 212.571 470.688 210.462 469.888 208.431C470.025 208.963 470.118 209.496 470.211 210.034Z" fill="black"/>
<path opacity="0.1" d="M479.927 232.206C479.392 235.4 479.602 238.673 480.541 241.772C480.798 242.612 481.088 243.419 481.439 244.243C480.983 241.817 480.959 239.33 481.368 236.896C481.603 235.49 481.987 234.079 481.811 232.668C481.65 231.458 481.157 230.318 480.387 229.373C480.305 230.328 480.086 231.267 479.927 232.206Z" fill="black"/>
<path opacity="0.1" d="M486.045 256.735C485.742 255.703 485.376 254.691 484.95 253.704C485.134 254.763 485.063 255.851 484.742 256.877C483.915 259.277 481.368 260.941 481.061 263.467C480.897 264.801 481.406 266.113 481.91 267.36C482.096 267.826 482.282 268.299 482.458 268.765C482.444 268.562 482.444 268.359 482.458 268.156C482.77 265.63 485.311 263.972 486.138 261.567C486.73 260.018 486.494 258.311 486.045 256.735Z" fill="black"/>
<path opacity="0.1" d="M470.945 269.907C469.29 268.95 467.828 267.691 466.634 266.195C465.336 264.455 464.624 262.352 463.693 260.391C462.754 258.49 461.685 256.655 460.494 254.9C456.533 248.855 452.195 243.065 447.508 237.566C447.338 237.373 447.174 237.176 447.01 236.978C446.897 237.486 446.854 238.007 446.884 238.526C447.01 239.965 447.979 241.157 448.943 242.255C453.632 247.752 457.972 253.54 461.935 259.584C463.124 261.34 464.193 263.174 465.134 265.075C466.065 267.041 466.777 269.139 468.069 270.879C469.263 272.374 470.725 273.631 472.38 274.586C476.555 277.167 481.29 278.698 486.182 279.05L484.265 274.328C479.542 273.913 474.981 272.399 470.945 269.907Z" fill="black"/>
<path opacity="0.1" d="M442.765 219.967C441.122 217.979 438.98 216.469 437.392 214.449C437.25 214.262 437.113 214.07 436.976 213.867C436.943 215.789 437.602 217.658 438.832 219.133C440.421 221.159 442.573 222.669 444.205 224.656C444.843 225.428 445.394 226.268 445.849 227.16C445.509 224.521 444.441 222.03 442.765 219.967Z" fill="black"/>
</g>
<path d="M228.966 163.603L224.995 159.6C224.799 159.401 224.565 159.244 224.308 159.136C224.051 159.029 223.775 158.974 223.497 158.974C223.218 158.974 222.942 159.029 222.685 159.136C222.428 159.244 222.195 159.401 221.999 159.6L197.061 184.369L186.512 173.717C186.118 173.322 185.583 173.1 185.025 173.1C184.468 173.1 183.933 173.322 183.538 173.717L179.524 177.698C179.129 178.098 178.908 178.637 178.908 179.2C178.908 179.762 179.129 180.302 179.524 180.701L195.544 196.883C195.942 197.278 196.479 197.5 197.039 197.5C197.599 197.5 198.137 197.278 198.535 196.883L228.966 166.606C229.164 166.41 229.321 166.176 229.428 165.918C229.535 165.66 229.59 165.384 229.59 165.104C229.59 164.825 229.535 164.549 229.428 164.291C229.321 164.033 229.164 163.799 228.966 163.603Z" fill="#3ACC6C"/>
<path d="M339.056 163.603L335.085 159.6C334.889 159.401 334.655 159.244 334.398 159.136C334.141 159.029 333.865 158.974 333.587 158.974C333.308 158.974 333.032 159.029 332.775 159.136C332.518 159.244 332.285 159.401 332.089 159.6L307.151 184.369L296.603 173.717C296.208 173.322 295.673 173.1 295.116 173.1C294.558 173.1 294.023 173.322 293.628 173.717L289.614 177.698C289.219 178.098 288.998 178.637 288.998 179.2C288.998 179.762 289.219 180.302 289.614 180.701L305.634 196.883C306.032 197.278 306.57 197.5 307.13 197.5C307.69 197.5 308.227 197.278 308.625 196.883L339.056 166.606C339.254 166.41 339.411 166.176 339.518 165.918C339.625 165.66 339.68 165.384 339.68 165.104C339.68 164.825 339.625 164.549 339.518 164.291C339.411 164.033 339.254 163.799 339.056 163.603Z" fill="#3ACC6C"/>
</g>
<defs>
<linearGradient id="paint0_linear" x1="459.246" y1="431.994" x2="459.246" y2="187.927" gradientUnits="userSpaceOnUse">
<stop stop-color="#808080" stop-opacity="0.25"/>
<stop offset="0.54" stop-color="#808080" stop-opacity="0.12"/>
<stop offset="1" stop-color="#808080" stop-opacity="0.1"/>
</linearGradient>
<clipPath id="clip0">
<rect width="618" height="432" fill="white"/>
</clipPath>
</defs>
</svg>
