<svg width="459" height="342" viewBox="0 0 459 342" fill="none" xmlns="http://www.w3.org/2000/svg">
<g clip-path="url(#clip0)">
<path opacity="0.1" d="M451.477 152.194C451.394 152.679 451.312 153.164 451.221 153.649C448.283 170.162 443.485 186.082 436.352 200.698C436.118 201.183 435.879 201.668 435.637 202.153C431.059 211.369 425.437 220.03 418.882 227.966C415.329 232.248 411.454 236.313 406.848 239.249C400.39 243.362 392.841 245.033 385.422 246.401C377.712 247.826 369.902 248.999 362.11 250.298C359.348 250.748 356.604 251.22 353.876 251.714C346.349 253.073 338.877 254.645 331.583 256.728C322.565 259.325 313.815 262.672 305.581 267.413C304.922 267.788 304.271 268.173 303.626 268.569C302.981 268.959 302.326 269.357 301.698 269.764C301.07 270.171 300.437 270.574 299.813 270.985L298.851 271.634C298.534 271.842 298.222 272.067 297.91 272.275C296.983 272.907 296.068 273.574 295.154 274.215L295.119 274.241C294.517 274.674 293.919 275.107 293.321 275.54C289.945 278.038 286.643 280.653 283.353 283.277L281.277 284.935C280.205 285.783 279.134 286.631 278.062 287.476C277.433 287.974 276.796 288.468 276.164 288.961C275.704 289.321 275.249 289.68 274.781 290.035C272.437 291.84 270.062 293.607 267.639 295.296C267.063 295.698 266.478 296.101 265.906 296.495C261.056 299.809 255.898 302.648 250.503 304.972L250.434 305.002C247.777 306.134 245.043 307.076 242.252 307.821C240.653 308.254 239.054 308.596 237.433 308.864C233.115 309.611 228.708 309.686 224.367 309.09C215.833 307.882 207.838 303.894 199.326 302.561C181.766 299.837 164.713 308.622 148.188 315.519C144.143 317.21 140.054 318.798 135.919 320.282C133.18 321.269 130.428 322.208 127.663 323.1C110.819 328.543 93.4616 332.253 75.8622 334.171C68.6768 334.955 61.1838 335.327 53.8684 334.764C51.1059 334.561 48.3569 334.204 45.6343 333.695C36.3731 331.963 27.7273 328.287 20.763 321.572C14.9774 316.078 10.895 308.895 7.7834 301.4C6.53239 298.39 5.43018 295.31 4.47675 292.161C2.97815 287.225 1.85255 282.185 1.10943 277.081C0.940417 275.929 0.788736 274.773 0.676059 273.617C0.450704 271.634 0.283131 269.643 0.173343 267.642C-0.433433 257.011 0.6059 246.351 3.25464 236.036C6.20592 224.611 11.1291 213.67 13.2959 202.136C13.3869 201.651 13.4693 201.166 13.5516 200.681C13.8405 198.949 14.0601 197.186 14.2103 195.39C15.3024 181.284 11.077 167.477 7.74006 153.649C7.62305 153.164 7.50604 152.679 7.39336 152.194C7.03222 150.661 6.68985 149.127 6.36626 147.591C3.2763 132.966 2.43122 117.315 5.17448 102.72C5.26116 102.235 5.36084 101.745 5.46051 101.265C7.31102 92.2247 10.5787 83.6261 15.5841 75.9671C20.7196 68.1045 27.4629 61.5625 34.6526 55.8128C38.163 53.013 41.7932 50.3936 45.5433 47.9546C48.2389 46.2055 50.9836 44.5501 53.7774 42.9886C76.3519 30.4328 102.107 24.2977 127.572 25.6702C128.922 25.7395 130.268 25.8319 131.611 25.9473C133.021 26.0685 134.427 26.2129 135.828 26.3803C152.223 28.2723 168.175 32.9613 184.032 38.0918C189.346 39.8237 194.646 41.5555 199.946 43.2873C202.304 44.0551 204.66 44.8128 207.014 45.5604C218.564 49.2015 230.304 52.4877 242.152 54.9642C244.9 55.5415 247.645 56.0683 250.386 56.5445C259.919 58.2505 269.565 59.2433 279.245 59.5146C283.001 59.607 286.757 59.568 290.513 59.3977C292.411 59.3111 294.31 59.1841 296.211 59.0167C315.848 57.3369 334.782 51.7041 353.794 46.4133C356.542 45.647 359.293 44.8849 362.028 44.1489C365.642 43.1791 369.261 42.2396 372.893 41.3736C395.506 35.9487 415.658 39.066 436.681 50.2536C441.448 52.7951 446.215 55.8605 449.162 60.6057C452.109 65.3509 452.824 71.2262 453.37 76.8806C454.142 84.925 454.67 93.082 454.84 101.274C454.84 101.758 454.84 102.243 454.87 102.728C455.251 119.315 454.241 136.027 451.477 152.194Z" fill="#CC39B3"/>
<path opacity="0.1" d="M301.49 200.698H300.012V201.343V202.153H301.685L301.49 200.698ZM284.74 200.698C284.738 200.71 284.738 200.721 284.74 200.733L284.61 201.936V202.045V202.153H297.438V202.066L298.352 200.698H284.74ZM250.438 200.698V153.649H265.173C265.017 153.519 264.857 153.389 264.692 153.268L264.475 153.103C264.384 153.029 264.293 152.96 264.198 152.895C264.103 152.83 263.877 152.666 263.708 152.553C263.539 152.441 263.435 152.367 263.275 152.276L263.175 152.211H263.154H250.438V149.635L250.096 149.8L249.732 150.003H249.706L249.628 150.051L249.403 150.198C249.325 150.245 249.247 150.293 249.173 150.345C248.948 150.497 248.74 150.661 248.501 150.83L248.285 151.003C248.137 151.116 247.999 151.233 247.851 151.35C247.275 151.821 246.707 152.315 246.118 152.77C245.97 152.887 245.823 152.999 245.684 153.107C245.369 153.338 245.042 153.552 244.705 153.748C244.565 153.835 244.42 153.915 244.272 153.986L244.029 154.099L243.808 154.194C243.287 154.413 242.748 154.584 242.196 154.705V200.698H220.094C220.094 200.75 220.124 200.798 220.137 200.85C220.258 201.283 220.38 201.716 220.497 202.149H242.2V252.584H242.538L242.924 252.61L243.626 252.662L244.761 252.775L245.273 252.835L245.836 252.904H245.918C246.243 252.948 246.573 253 246.906 253.052L247.119 253.086L247.596 253.164L248.28 253.285L249.923 253.199L250.148 253.246C250.239 253.246 250.33 253.281 250.425 253.303V202.153H284.58V202.045V201.936L284.71 200.733C284.708 200.721 284.708 200.71 284.71 200.698H250.438ZM301.49 200.698H300.012V201.343V202.153H301.685L301.49 200.698ZM283.817 200.698L283.67 202.153H297.941L298.911 200.698H283.817ZM250.447 200.698V153.649H265.182C265.026 153.519 264.865 153.389 264.701 153.268L264.484 153.103C264.393 153.029 264.302 152.96 264.207 152.895C264.111 152.83 263.886 152.666 263.717 152.553C263.548 152.441 263.444 152.367 263.284 152.276L263.184 152.211H263.154H250.438V149.635L250.096 149.8L249.732 150.003H249.706L249.628 150.051L249.403 150.198C249.325 150.245 249.247 150.293 249.173 150.345C248.948 150.497 248.74 150.661 248.501 150.83L248.285 151.003C248.137 151.116 247.999 151.233 247.851 151.35C247.275 151.821 246.707 152.315 246.118 152.77C245.97 152.887 245.823 152.999 245.684 153.107C245.369 153.338 245.042 153.552 244.705 153.748C244.565 153.835 244.42 153.915 244.272 153.986L244.029 154.099L243.808 154.194C243.287 154.413 242.748 154.584 242.196 154.705V200.698H220.094C220.094 200.75 220.124 200.798 220.137 200.85C220.258 201.283 220.384 201.716 220.501 202.149H242.2V252.58L242.538 252.601L242.924 252.627L243.626 252.679L244.761 252.792L245.273 252.852L245.836 252.922H245.918C246.243 252.965 246.573 253.017 246.906 253.069L247.119 253.104L247.596 253.182L248.28 253.303L249.923 253.216L250.148 253.264C250.239 253.264 250.33 253.298 250.425 253.32V202.153H283.67L283.826 200.698H250.447ZM362.11 102.72H454.952C454.952 102.235 454.952 101.75 454.922 101.265H362.11V44.1402C359.354 44.8762 356.602 45.6382 353.876 46.4046V101.265H252.9L252.644 100.988L253.03 100.555L290.586 59.376C286.83 59.5492 283.074 59.5882 279.319 59.4929L250.438 91.1422V56.5358C247.682 56.0595 244.937 55.5328 242.204 54.9555V89.5489L199.981 43.2786C194.68 41.5468 189.38 39.7846 184.067 38.0831L241.459 100.988L241.203 101.265H135.863V26.3629C134.459 26.2041 133.053 26.0598 131.646 25.9299C130.303 25.8116 128.956 25.7192 127.607 25.6528V101.265H53.8121V42.9885C51.0125 44.5472 48.2678 46.2025 45.578 47.9546V101.265H5.44319C5.34351 101.745 5.24383 102.235 5.15716 102.72H45.5433V152.194H7.39337C7.50605 152.679 7.62306 153.164 7.74007 153.649H45.5607V200.698H13.5386C13.4563 201.183 13.3739 201.668 13.2829 202.153H45.5607V333.708C48.2833 334.217 51.0323 334.574 53.7948 334.777V202.153H127.607V323.113C130.375 322.215 133.127 321.276 135.863 320.295V202.153H242.187V307.838C244.978 307.093 247.712 306.151 250.369 305.02L250.438 304.989V202.153H353.85V251.714C356.592 251.22 359.337 250.748 362.084 250.298V202.153H435.615C435.858 201.668 436.096 201.183 436.33 200.698H362.11V153.649H451.225C451.316 153.164 451.399 152.679 451.481 152.194H362.11V102.72ZM53.8164 102.72H127.607V152.194H53.8121L53.8164 102.72ZM53.8164 200.698V153.649H127.607V200.698H53.8164ZM135.867 102.72H242.187V152.194H135.863L135.867 102.72ZM135.867 200.698V153.649H242.187V200.698H135.867ZM353.855 200.698H250.438V153.649H353.85L353.855 200.698ZM353.855 152.207H250.438V104.044L251.89 102.72H353.85L353.855 152.207ZM284.744 200.698C284.742 200.71 284.742 200.721 284.744 200.733L284.614 201.936V202.045V202.153H297.442V202.066L298.357 200.698H284.744ZM301.494 200.698H300.016V201.343V202.153H301.689L301.494 200.698ZM250.443 200.698V153.649H265.178C265.021 153.519 264.861 153.389 264.696 153.268L264.48 153.103C264.389 153.029 264.298 152.96 264.202 152.895C264.107 152.83 263.882 152.666 263.713 152.553C263.544 152.441 263.44 152.367 263.279 152.276L263.18 152.211H263.158H250.438V149.635L250.096 149.8L249.732 150.003H249.706L249.628 150.051L249.403 150.198C249.325 150.245 249.247 150.293 249.173 150.345C248.948 150.497 248.74 150.661 248.501 150.83L248.285 151.003C248.137 151.116 247.999 151.233 247.851 151.35C247.275 151.821 246.707 152.315 246.118 152.77C245.97 152.887 245.823 152.999 245.684 153.107C245.369 153.338 245.042 153.552 244.705 153.748C244.565 153.835 244.42 153.915 244.272 153.986L244.029 154.099L243.808 154.194C243.287 154.413 242.748 154.584 242.196 154.705V200.698H220.094C220.094 200.75 220.124 200.798 220.137 200.85C220.258 201.283 220.38 201.716 220.497 202.149H242.2V252.584H242.538L242.924 252.61L243.626 252.662L244.761 252.775L245.273 252.835L245.836 252.904H245.918C246.243 252.948 246.573 253 246.906 253.052L247.119 253.086L247.596 253.164L248.28 253.285L249.923 253.199L250.148 253.246C250.239 253.246 250.33 253.281 250.425 253.303V202.153H284.58V202.045V201.936L284.71 200.733C284.708 200.721 284.708 200.71 284.71 200.698H250.443Z" fill="#CC39B3"/>
<path opacity="0.1" d="M89.2925 68.6543H89.9512C89.7258 68.524 89.5362 68.3399 89.3994 68.1186C89.2625 67.8972 89.1826 67.6455 89.1668 67.3857C89.1668 66.3813 90.3976 65.563 91.9014 65.563H111.035C112.539 65.563 113.769 66.3813 113.769 67.3857C113.769 68.3859 112.539 69.2085 111.035 69.2085H110.398C110.622 69.3396 110.811 69.524 110.947 69.7453C111.083 69.9665 111.162 70.2179 111.178 70.4771C111.178 71.343 110.285 72.053 109.089 72.2479H114.597C116.097 72.2479 117.327 73.0662 117.327 74.0706C117.327 75.0751 116.097 75.8891 114.597 75.8891H95.4421C93.9426 75.8891 92.7118 75.0708 92.7118 74.0706C92.7118 73.2047 93.6046 72.4947 94.8007 72.2998H89.2925C87.793 72.2998 86.5622 71.4815 86.5622 70.4771C86.5622 69.4726 87.7844 68.6543 89.2925 68.6543Z" fill="#CC39B3"/>
<path opacity="0.1" d="M296.671 86.003H297.312C297.087 85.8719 296.897 85.6871 296.76 85.465C296.623 85.2429 296.543 84.9904 296.528 84.7301C296.528 83.7299 297.759 82.9116 299.262 82.9116H318.396C319.9 82.9116 321.131 83.7299 321.131 84.7301C321.131 85.7345 319.9 86.5528 318.396 86.5528H317.759C317.984 86.6846 318.172 86.8698 318.308 87.0918C318.444 87.3138 318.524 87.5659 318.539 87.8257C318.539 88.6916 317.646 89.3974 316.45 89.5922H321.958C323.458 89.5922 324.689 90.4148 324.689 91.4149C324.689 92.4151 323.458 93.2377 321.958 93.2377H302.829C301.33 93.2377 300.099 92.4194 300.099 91.4149C300.099 90.549 300.992 89.839 302.188 89.6485H296.671C295.171 89.6485 293.941 88.8259 293.941 87.8257C293.941 86.8256 295.18 86.003 296.671 86.003Z" fill="#CC39B3"/>
<path opacity="0.1" d="M59.94 160.243H60.5814C60.3567 160.111 60.168 159.926 60.032 159.704C59.8959 159.482 59.8167 159.23 59.8013 158.97C59.8013 157.97 61.0278 157.147 62.5316 157.147H81.6651C83.1689 157.147 84.3997 157.97 84.3997 158.97C84.3997 159.974 83.1689 160.792 81.6651 160.792H81.028C81.2527 160.924 81.4414 161.109 81.5775 161.331C81.7135 161.553 81.7927 161.806 81.8081 162.065C81.8081 162.931 80.9153 163.637 79.7192 163.832H85.2274C86.7312 163.832 87.9577 164.65 87.9577 165.655C87.9577 166.659 86.7312 167.477 85.2274 167.477H66.0896C64.5901 167.477 63.3593 166.655 63.3593 165.655C63.3593 164.789 64.2564 164.079 65.4482 163.884H59.94C58.4405 163.884 57.2098 163.066 57.2098 162.065C57.2098 161.065 58.4405 160.243 59.94 160.243Z" fill="#CC39B3"/>
<path d="M281.225 284.952C280.154 285.801 279.082 286.648 278.01 287.494C277.381 287.992 276.744 288.485 276.112 288.979C275.652 289.338 275.197 289.697 274.729 290.052C272.385 291.858 270.01 293.624 267.587 295.313C267.011 295.716 266.426 296.118 265.854 296.512C261.004 299.826 255.846 302.665 250.451 304.989L250.382 305.02V284.952H281.225Z" fill="#65617D"/>
<path d="M329.451 206.084L329.937 191.125C329.646 190.9 329.352 190.692 329.07 190.485C329.19 186.025 328.935 181.562 328.307 177.145C326.348 162.186 313.629 161.862 310.04 164.949C309.565 165.359 309.046 165.716 308.493 166.014C308.818 163.879 309.221 161.74 309.512 159.628C311.081 148.232 308.645 135.412 299.796 128.048C296.09 124.969 291.561 123.077 287.492 120.501C280.203 115.907 274.443 109.123 267.071 104.65C259.7 100.178 249.346 98.5024 242.915 104.252C240.423 106.478 238.815 109.565 236.258 111.712C231.491 115.713 224.059 115.977 219.899 120.445C219.691 120.67 219.491 120.899 219.301 121.142C215.834 125.584 216.783 131.884 217.888 137.395C219.218 144.028 218.668 149.345 224.362 151.25C224.384 151.514 224.401 151.778 224.432 152.038C224.895 156.107 226.243 160.025 228.381 163.519C230.519 167.014 233.395 169.999 236.809 172.266L235.886 172.595C233.424 173.461 231.21 174.301 229.793 174.876C224.592 176.994 213.645 179.752 213.645 179.752C213.645 179.752 213.385 182.869 213.433 187.467C209.784 191.428 203.695 198.39 201.905 202.517C199.305 208.535 184.613 225.771 180.7 228.373C176.786 230.975 172.544 234.062 172.544 234.062C172.544 234.062 166.347 237.478 163.413 237.803C161.38 238.028 155.092 236.824 155.092 236.824C155.092 236.824 129.978 206.084 131.607 229.672C133.237 253.259 153.298 254.06 153.298 254.06L173.523 253.736C173.523 253.736 184.453 255.199 189.346 251.138C193.523 247.674 215.175 228.672 222.13 220.051C222.291 220.229 222.451 220.402 222.62 220.571C222.62 220.571 225.389 216.995 225.719 220.571C226.048 224.147 223.92 225.766 225.064 227.065C226.209 228.364 229.632 232.919 229.793 234.707C229.953 236.495 225.229 243.799 233.216 249.341C233.342 249.428 233.476 249.51 233.624 249.592C235.049 252.835 239.582 256.009 239.582 256.009L264.046 255.684L310.205 259.26C310.205 259.26 311.579 258.052 313.438 256.078C315.921 258.355 319.367 260.308 323.25 259.109C323.25 259.109 328.797 252.445 328.962 248.055C328.962 248.055 325.373 238.786 323.761 236.023C322.149 233.261 324.905 227.243 324.905 227.243C324.905 227.243 326.86 221.389 328.004 221.389C329.148 221.389 328.329 217.493 328.329 217.493C327.896 216.856 327.626 216.123 327.54 215.358C327.455 214.593 327.558 213.819 327.839 213.102C328.797 210.639 329.451 206.084 329.451 206.084Z" fill="url(#paint0_linear)"/>
<path d="M301.78 202.716L300.047 204.742L293.044 212.891L283.895 213.445L269.251 214.345C269.251 214.345 249.507 190.576 253.216 185.402C254.564 183.536 254.785 181.072 254.517 178.747C254.482 178.427 254.434 178.107 254.378 177.791C253.934 175.331 253.158 172.942 252.072 170.69L252.558 170.469L252.87 170.326L270.135 162.455L274.408 160.507C274.621 161.683 275.016 162.82 275.579 163.875C275.661 164.04 275.752 164.204 275.847 164.36C281.737 174.102 300.623 167.941 300.623 167.941L301.78 202.716Z" fill="#EE8E9E"/>
<path d="M327.31 190.554C327.18 196.451 326.218 198.997 326.218 198.997L301.78 202.716L300.866 196.377L297.247 171.348L300.645 167.954C302.002 168.246 303.409 168.223 304.756 167.887C306.103 167.551 307.355 166.91 308.415 166.014C311.973 162.94 324.598 163.265 326.539 178.137C327.109 182.25 327.367 186.401 327.31 190.554Z" fill="#EE8E9E"/>
<path d="M321.525 259.624C321.525 259.624 327.024 252.995 327.189 248.631L321.685 239.413L316.831 234.218L307.765 251.701C307.765 251.701 313.754 262.048 321.525 259.624Z" fill="#DFE5EE"/>
<path opacity="0.1" d="M321.525 259.624C321.525 259.624 327.024 252.995 327.189 248.631L321.685 239.413L316.831 234.218L307.765 251.701C307.765 251.701 313.754 262.048 321.525 259.624Z" fill="black"/>
<path d="M276.112 288.979C275.652 289.338 275.197 289.697 274.729 290.052C272.385 291.858 270.01 293.624 267.587 295.313C267.011 295.715 266.426 296.118 265.854 296.512H242.187H135.863H127.607L86.7053 295.049L53.8121 294.772L45.578 294.339L4.49409 292.174C2.98899 287.235 1.85759 282.189 1.10944 277.081C0.940422 275.929 0.788741 274.773 0.676064 273.617L45.5607 276.102L53.7948 276.566L127.59 280.679L135.846 281.138L242.17 287.069L250.352 287.528H250.421L276.112 288.979Z" fill="#D48A9B"/>
<path d="M331.558 256.727C322.539 259.325 313.789 262.672 305.555 267.413C304.901 267.789 304.255 268.175 303.601 268.569C302.946 268.963 302.3 269.357 301.672 269.764C301.044 270.171 300.411 270.573 299.787 270.985L298.825 271.634L297.884 272.275C296.957 272.911 296.042 273.574 295.128 274.215L295.093 274.241C294.491 274.673 293.893 275.106 293.295 275.539C289.919 278.038 286.617 280.653 283.327 283.276C282.634 283.831 281.939 284.383 281.243 284.935L278.036 287.476C277.407 287.974 276.77 288.468 276.138 288.961C275.678 289.321 275.223 289.68 274.755 290.035L250.486 288.879H250.417L242.235 288.498L135.863 283.463L127.607 283.069L53.8121 279.566L45.578 279.172L1.10944 277.081C0.940422 275.929 0.788741 274.773 0.676064 273.617C0.450709 271.634 0.283136 269.643 0.173347 267.642L45.5737 251.623L53.8078 248.709L61.2878 246.068L74.9174 246.778L106.419 248.393L127.62 249.506L135.876 249.939L141.15 250.216L142.411 250.285L186.797 252.601L187.265 252.632L207.071 253.662H207.296H207.426L209.407 253.762L216.159 254.117L224.601 254.55L227.383 254.697L227.907 254.727L231.842 254.931L232.965 254.987L236.722 255.186L238.217 255.268H238.265H238.577L242.092 255.454L247.535 255.74H247.561L249.251 255.827H249.433L250.443 255.883L252.922 256.013L255.089 256.126H255.11L257.541 256.251H257.58L259.422 256.351L260.835 256.424L265.849 256.688L266.751 256.736H267.063L267.496 256.762L268.965 256.84L269.624 256.875L274.738 257.139H275.206L282.755 257.074H282.807L311.51 256.84H312.06H312.641H314.348L323.588 256.766H324.966L331.558 256.727Z" fill="#EFC6CD"/>
<path d="M137.843 257.321L140.513 271.509L213.095 270.418C213.095 270.418 218.555 271.994 218.434 267.63C218.434 267.63 229.48 257.2 285.433 269.327L263.951 252.472L205.229 255.624L137.137 253.805L137.843 257.321Z" fill="#CC39B3"/>
<path d="M139.178 253.926L141.726 269.327C141.726 269.327 204.132 267.508 213.944 269.206L206.529 255.139C206.529 255.139 168.795 251.623 139.178 253.926Z" fill="white"/>
<path opacity="0.1" d="M139.178 253.926L141.726 269.327C141.726 269.327 204.132 267.508 213.944 269.206L206.529 255.139C206.529 255.139 168.795 251.623 139.178 253.926Z" fill="black"/>
<path d="M140.11 253.87L142.624 268.192C142.624 268.192 204.236 266.503 213.944 268.079L206.633 255C206.633 255 169.354 251.727 140.11 253.87Z" fill="white"/>
<path opacity="0.1" d="M141.241 254.312L143.69 267.708C143.69 267.708 203.95 266.127 213.463 267.604L206.312 255.364C206.312 255.364 169.848 252.29 141.241 254.312Z" fill="black"/>
<path d="M141.727 253.822L144.188 267.244C144.188 267.244 204.449 265.664 213.961 267.14L206.793 254.888C206.793 254.888 170.334 251.818 141.727 253.822Z" fill="white"/>
<path d="M99.0911 217.397C99.0911 217.397 102.246 221.515 97.6393 227.737C93.0325 233.958 89.2275 239.206 90.766 243.085C90.766 243.085 97.7 231.534 103.377 231.395C109.054 231.257 105.319 224.342 99.0911 217.397Z" fill="#CC39B3"/>
<path opacity="0.1" d="M99.0911 217.397C99.3683 217.797 99.5858 218.234 99.7368 218.696C105.258 225.191 108.201 231.252 102.892 231.382C97.947 231.521 92.0184 240.353 90.597 242.587C90.6461 242.754 90.7024 242.923 90.766 243.094C90.766 243.094 97.7 231.542 103.377 231.404C109.054 231.265 105.319 224.342 99.0911 217.397Z" fill="black"/>
<path d="M104.955 222.649C104.955 224.095 104.79 225.273 104.591 225.273C104.391 225.273 104.227 224.095 104.227 222.649C104.227 221.203 104.43 221.878 104.63 221.878C104.829 221.878 104.955 221.199 104.955 222.649Z" fill="#FFD037"/>
<path d="M106.966 224.377C105.691 225.074 104.582 225.494 104.487 225.316C104.391 225.139 105.353 224.45 106.619 223.74C107.884 223.03 107.39 223.55 107.486 223.74C107.581 223.931 108.24 223.684 106.966 224.377Z" fill="#FFD037"/>
<path d="M82.4365 217.397C82.4365 217.397 79.2815 221.515 83.8926 227.737C88.5037 233.958 92.3001 239.206 90.766 243.085C90.766 243.085 83.8103 231.534 78.1504 231.395C72.4906 231.257 76.2089 224.342 82.4365 217.397Z" fill="#CC39B3"/>
<path opacity="0.1" d="M82.4365 217.397C82.1615 217.798 81.9442 218.235 81.7908 218.696C76.2696 225.191 73.327 231.252 78.6358 231.382C83.5806 231.521 89.5135 240.353 90.935 242.587C90.8888 242.754 90.8324 242.923 90.766 243.094C90.766 243.094 83.8103 231.542 78.1504 231.404C72.4906 231.265 76.2089 224.342 82.4365 217.397Z" fill="black"/>
<path d="M76.573 222.649C76.573 224.095 76.7376 225.273 76.937 225.273C77.1363 225.273 77.301 224.095 77.301 222.649C77.301 221.203 77.0973 221.878 76.898 221.878C76.6986 221.878 76.573 221.199 76.573 222.649Z" fill="#FFD037"/>
<path d="M74.5621 224.377C75.8362 225.074 76.95 225.494 77.0453 225.316C77.1407 225.139 76.1786 224.45 74.9131 223.74C73.6477 223.03 74.1417 223.55 74.0464 223.74C73.951 223.931 73.288 223.684 74.5621 224.377Z" fill="#FFD037"/>
<path d="M107.72 237.53L107.564 238.829L107.343 240.643L107.252 241.401L107.031 243.219L106.935 243.977L106.71 245.795L104.188 266.456C103.962 268.301 100.946 269.738 97.3056 269.738H84.209C80.5687 269.738 77.5567 268.301 77.3314 266.456L74.8048 245.795L74.5838 243.977L74.4928 243.219L74.2674 241.401L74.1764 240.643L73.9554 238.829L73.795 237.53C73.6693 236.487 75.2988 235.608 77.3617 235.608H104.17C106.229 235.608 107.863 236.487 107.72 237.53Z" fill="#65617D"/>
<path d="M107.577 238.816L107.356 240.634H74.1764L73.9554 238.816H107.577Z" fill="#9D9CB5"/>
<path d="M107.265 241.392L107.044 243.211H74.4928L74.2674 241.392H107.265Z" fill="#9D9CB5"/>
<path d="M106.948 243.968L106.727 245.782H74.8048L74.5838 243.968H106.948Z" fill="#9D9CB5"/>
<path d="M147.716 235.859C147.716 235.859 139.3 227.775 139.625 238.283C139.95 248.791 147.716 235.859 147.716 235.859Z" fill="#EE8E9E"/>
<path d="M223.292 217.428C223.106 218.242 222.2 219.592 220.787 221.285C213.489 230.066 192.726 248.315 188.657 251.701C183.803 255.745 172.96 254.298 172.96 254.298L152.895 254.623C152.895 254.623 132.99 253.814 131.369 230.377C129.748 206.941 154.671 237.491 154.671 237.491C154.671 237.491 160.912 238.686 162.927 238.461C165.839 238.14 171.989 234.746 171.989 234.746C171.989 234.746 176.197 231.672 180.08 229.087C183.963 226.502 198.529 209.362 201.121 203.378C202.763 199.581 208.054 193.372 211.708 189.346C213.805 187.03 215.361 185.449 215.361 185.449C215.361 185.449 224.423 212.414 223.292 217.428Z" fill="#EE8E9E"/>
<path opacity="0.1" d="M223.292 217.428C223.106 218.242 222.2 219.593 220.787 221.285C213.42 213.791 211.881 198.837 211.708 189.329C213.805 187.012 215.361 185.432 215.361 185.432C215.361 185.432 224.423 212.414 223.292 217.428Z" fill="black"/>
<path opacity="0.1" d="M300.043 204.742L293.044 212.89L283.895 213.445L269.251 214.345C269.251 214.345 249.507 190.576 253.216 185.402C254.564 183.536 254.785 181.072 254.517 178.747C254.482 178.427 254.434 178.106 254.378 177.79C253.934 175.33 253.158 172.942 252.072 170.69L252.558 170.469L252.87 170.326C253.64 172.471 254.172 174.694 254.456 176.955C254.504 177.262 254.547 177.583 254.59 177.912C254.742 179.081 254.881 180.379 255.024 181.808C256.15 194.892 264.389 199.815 268.107 201.382C269.303 201.886 270.472 202.451 271.609 203.075C275.186 205.046 279.312 205.791 283.353 205.197C292.532 203.993 300.017 197.33 300.017 197.33L300.056 203.889L300.043 204.742Z" fill="black"/>
<path d="M300.324 255.584C300.324 255.584 240.124 255.42 232.189 249.925C224.254 244.431 228.956 237.153 228.791 235.374C228.627 233.594 225.233 229.07 224.102 227.771C222.971 226.472 225.073 224.861 224.748 221.307C224.423 217.752 221.675 221.307 221.675 221.307C210.343 209.825 212.77 180.726 212.77 180.726C212.77 180.726 223.604 177.981 228.804 175.872C230.213 175.301 232.406 174.487 234.872 173.608L235.786 173.279C242.144 171.006 249.702 168.438 249.702 168.438C249.702 168.438 251.154 167.412 252.614 170.482C253.281 171.893 253.953 174.166 254.491 177.799C254.538 178.106 254.582 178.427 254.625 178.756C254.777 179.925 254.915 181.223 255.058 182.652C256.185 195.736 264.424 200.659 268.142 202.226C269.337 202.73 270.506 203.295 271.644 203.919C275.221 205.89 279.346 206.635 283.388 206.041C292.567 204.837 300.051 198.174 300.051 198.174L300.09 204.733L300.203 224.441L300.324 255.584Z" fill="#DFE5EE"/>
<path d="M297.733 230.04L296.762 236.184C296.762 236.184 272.809 242.163 263.427 243.942C254.044 245.722 233.81 243.457 232.354 247.337C230.898 251.216 238.503 256.554 238.503 256.554L262.772 256.23L308.571 259.789C308.571 259.789 326.049 244.427 320.385 233.755C314.721 223.082 297.733 230.04 297.733 230.04Z" fill="#EE8E9E"/>
<path opacity="0.1" d="M248.376 181.536C248.376 181.536 237.368 190.589 239.474 194.957C241.58 199.326 248.376 181.536 248.376 181.536Z" fill="black"/>
<path opacity="0.1" d="M234.781 197.862C234.781 197.862 223.613 217.103 224.263 218.558C224.913 220.013 227.985 225.186 227.821 221.307C227.656 217.428 234.781 197.862 234.781 197.862Z" fill="black"/>
<path opacity="0.1" d="M239.314 201.261C239.314 201.261 236.714 213.224 234.135 218.238C231.556 223.251 239.314 201.261 239.314 201.261Z" fill="black"/>
<path opacity="0.1" d="M275.869 164.373C273.729 168.293 270.68 171.645 266.978 174.147C263.277 176.649 259.029 178.229 254.59 178.756H254.538C247.556 179.575 240.522 177.735 234.837 173.604C241.338 171.257 249.667 168.434 249.667 168.434C249.667 168.434 251.119 167.408 252.579 170.478L274.43 160.52C274.676 161.879 275.163 163.185 275.869 164.373Z" fill="black"/>
<path d="M279.284 150.008C279.292 154.877 278.022 159.663 275.6 163.888C274.443 165.903 273.042 167.767 271.427 169.439C266.922 174.125 260.918 177.09 254.456 177.821H254.4C253.367 177.939 252.328 177.998 251.288 177.998C244.409 177.998 237.771 175.469 232.64 170.891C227.509 166.314 224.245 160.01 223.47 153.181C223.349 152.133 223.29 151.079 223.292 150.025C223.292 142.607 226.241 135.493 231.492 130.248C236.742 125.002 243.863 122.056 251.288 122.056C258.713 122.056 265.834 125.002 271.084 130.248C276.334 135.493 279.284 142.607 279.284 150.025V150.008Z" fill="#EE8E9E"/>
<path opacity="0.1" d="M297.412 202.932L300.012 199.035C300.012 199.035 314.253 182.059 328.182 192.892L327.696 207.768C327.696 207.768 327.046 212.293 326.075 214.696C325.797 215.409 325.695 216.179 325.78 216.94C325.864 217.7 326.132 218.429 326.561 219.064C326.561 219.064 327.371 222.961 326.24 222.961C325.109 222.961 323.163 228.78 323.163 228.78C323.163 228.78 320.411 234.763 322.032 237.512C323.653 240.262 327.211 249.475 327.211 249.475C327.211 249.475 321.547 246.081 319.926 240.422C319.926 240.422 306.17 229.75 295.488 236.525L297.412 202.932Z" fill="black"/>
<path opacity="0.1" d="M327.31 190.554C327.18 196.451 326.218 198.997 326.218 198.997L301.78 202.716L300.866 196.377C304.064 193.043 315.696 182.445 327.31 190.554Z" fill="black"/>
<path d="M297.412 202.066L300.012 198.17C300.012 198.17 314.253 181.193 328.182 192.026L327.696 206.902C327.696 206.902 327.046 211.427 326.075 213.83C325.797 214.543 325.695 215.313 325.78 216.074C325.864 216.835 326.132 217.564 326.561 218.198C326.561 218.198 327.371 222.095 326.24 222.095C325.109 222.095 323.163 227.914 323.163 227.914C323.163 227.914 320.411 233.897 322.032 236.647C323.653 239.396 327.211 248.609 327.211 248.609C327.211 248.609 321.547 245.215 319.926 239.556C319.926 239.556 306.17 228.884 295.488 235.66L297.412 202.066Z" fill="#DFE5EE"/>
<path opacity="0.1" d="M320.389 191.074C320.389 191.074 296.927 205.465 298.058 218.086C298.058 218.086 311.167 194.953 320.389 191.074Z" fill="black"/>
<path opacity="0.1" d="M300.038 204.747L300.151 224.455C295.713 224.654 291.531 224.078 288.224 221.208C285.923 219.207 284.584 216.445 283.891 213.458C283.375 211.051 283.185 208.585 283.327 206.128C283.325 206.103 283.325 206.079 283.327 206.054C283.6 200.612 284.853 195.169 284.194 189.762C283.535 184.354 280.255 178.648 274.898 177.509C273.841 177.28 272.653 177.197 271.899 176.422C271.067 175.556 271.106 174.21 271.197 173.011L271.353 170.989C271.392 170.469 271.41 169.954 271.41 169.439C271.406 164.842 269.806 160.389 266.881 156.84C263.957 153.291 259.89 150.867 255.375 149.982L255.201 149.951C253.693 149.648 252.124 149.349 250.616 149.696C247.747 150.358 245.892 153.138 243.249 154.458C238.178 156.987 229.723 154.22 224.414 153.35C224.068 153.294 223.738 153.229 223.422 153.155C223.301 152.107 223.242 151.053 223.244 149.999C223.246 145.715 224.233 141.489 226.129 137.646C228.025 133.804 230.779 130.448 234.178 127.837C237.578 125.226 241.532 123.43 245.737 122.588C249.941 121.746 254.283 121.88 258.427 122.98C262.572 124.08 266.408 126.116 269.64 128.931C272.871 131.747 275.413 135.266 277.068 139.218C278.722 143.17 279.446 147.449 279.184 151.725C278.921 156.001 277.679 160.159 275.553 163.88C275.635 164.044 275.726 164.209 275.821 164.364C281.711 174.106 300.597 167.945 300.597 167.945L301.733 202.707L300.038 204.747Z" fill="black"/>
<path d="M244.267 153.978C246.893 152.653 248.748 149.873 251.635 149.215C253.138 148.869 254.707 149.168 256.224 149.466L256.397 149.501C261.171 150.445 265.432 153.105 268.374 156.977C271.316 160.85 272.733 165.666 272.359 170.512L272.203 172.534C272.107 173.729 272.068 175.085 272.909 175.942C273.659 176.717 274.846 176.808 275.904 177.024C281.26 178.167 284.541 183.843 285.199 189.281C285.858 194.719 284.584 200.179 284.333 205.643C284.081 211.107 285.087 217.138 289.221 220.727C295.722 226.356 305.603 223.152 314.205 222.636C310.4 222.636 307.549 218.714 307.341 214.921C307.133 211.128 308.823 207.518 310.439 204.097C312.056 200.677 313.677 196.997 313.317 193.213C312.823 188.017 308.723 183.856 307.154 178.856C305.325 173.037 307.089 166.789 307.917 160.741C309.473 149.414 307.05 136.664 298.274 129.342C294.599 126.281 290.105 124.398 286.066 121.835C278.829 117.25 273.121 110.526 265.806 106.067C258.491 101.607 248.22 99.9531 241.836 105.668C239.366 107.881 237.771 110.95 235.231 113.085C230.269 117.263 222.382 117.341 218.403 122.467C214.98 126.879 215.907 133.144 217.004 138.621C218.464 145.925 217.641 151.61 225.454 152.908C230.742 153.744 239.192 156.511 244.267 153.978Z" fill="#603556"/>
<path opacity="0.1" d="M308.649 219.147C302.387 219.913 296.181 220.307 291.622 216.359C287.488 212.769 286.469 206.742 286.734 201.274C286.998 195.806 288.263 190.342 287.6 184.908C286.937 179.475 283.661 173.799 278.305 172.656C277.247 172.43 276.064 172.348 275.31 171.573C274.473 170.707 274.508 169.356 274.603 168.161L274.759 166.14C275.134 161.293 273.716 156.478 270.774 152.606C267.833 148.734 263.571 146.075 258.798 145.132L258.625 145.098C257.108 144.799 255.539 144.5 254.036 144.847C251.167 145.509 249.312 148.31 246.668 149.609C241.593 152.142 233.147 149.375 227.829 148.505C220.029 147.228 220.843 141.535 219.379 134.217C218.559 130.13 217.836 125.602 218.945 121.731C218.737 121.952 218.538 122.164 218.347 122.428C214.923 126.84 215.851 133.105 216.947 138.582C218.408 145.886 217.584 151.57 225.398 152.869C230.711 153.735 239.162 156.506 244.237 153.973C246.863 152.649 248.718 149.869 251.604 149.211C253.108 148.865 254.677 149.163 256.194 149.462L256.367 149.497C261.141 150.44 265.402 153.1 268.344 156.973C271.285 160.845 272.703 165.661 272.328 170.508L272.172 172.53C272.077 173.725 272.038 175.08 272.879 175.937C273.628 176.712 274.816 176.803 275.873 177.02C281.23 178.163 284.51 183.839 285.169 189.277C285.828 194.715 284.558 200.175 284.302 205.638C284.047 211.102 285.056 217.134 289.191 220.723C295.691 226.351 305.572 223.147 314.175 222.632C311.839 222.645 309.876 221.164 308.649 219.147Z" fill="black"/>
<path d="M132.769 233.59L159.486 223.632C160.118 223.397 160.817 223.421 161.431 223.7C162.044 223.98 162.522 224.491 162.758 225.122C162.994 225.753 162.969 226.451 162.69 227.064C162.41 227.677 161.899 228.154 161.267 228.39L134.55 238.348L128.821 237.777L132.769 233.59Z" fill="#5C5C8E"/>
<path opacity="0.1" d="M161.952 224.307C162.188 224.939 162.162 225.638 161.882 226.251C161.602 226.864 161.089 227.341 160.457 227.576L133.722 237.569L129.423 237.136L128.803 237.794L134.532 238.366L161.25 228.408C161.881 228.171 162.393 227.694 162.673 227.081C162.952 226.468 162.977 225.77 162.741 225.139C162.544 224.613 162.178 224.167 161.701 223.87C161.797 224.008 161.881 224.155 161.952 224.307Z" fill="white"/>
<path d="M132.773 233.59L134.55 238.349L129.852 237.877L128.825 237.773L130.229 236.283L132.773 233.59Z" fill="#EFC8C4"/>
<path d="M130.225 236.27C130.334 236.352 130.428 236.453 130.502 236.569C130.546 236.638 130.569 236.718 130.569 236.8C130.569 236.882 130.546 236.963 130.502 237.032C130.428 237.108 130.342 237.171 130.246 237.218C130.139 237.29 130.049 237.385 129.983 237.495C129.917 237.606 129.877 237.731 129.865 237.859L128.834 237.759L130.225 236.27Z" fill="#727A9C"/>
<path d="M216.657 263.98C216.657 263.98 239.799 259.126 278.63 265.279L263.418 254.126L235.743 248.467L216.163 253.662L216.657 263.98Z" fill="white"/>
<path opacity="0.1" d="M216.657 263.98C216.657 263.98 239.799 259.126 278.63 265.279L263.418 254.126L235.743 248.467L216.163 253.662L216.657 263.98Z" fill="black"/>
<path d="M213.944 269.227C213.944 269.227 225.597 237.734 285.451 269.327L263.968 255.515C263.968 255.515 212.505 241.31 206.559 257.68L213.944 269.227Z" fill="white"/>
<path opacity="0.1" d="M213.944 269.205C213.944 269.205 225.597 235.534 285.451 269.812L263.968 254.831C263.968 254.831 212.488 237.842 206.529 255.623L213.944 269.205Z" fill="black"/>
<path d="M213.944 269.219C213.944 269.219 225.597 235.049 285.451 269.327L263.968 254.346C263.968 254.346 212.505 237.842 206.559 255.645L213.944 269.219Z" fill="white"/>
<path opacity="0.1" d="M213.944 269.227C213.944 269.227 225.597 231.252 285.451 269.811L263.951 252.956C263.951 252.956 212.488 235.638 206.542 255.623L213.944 269.227Z" fill="black"/>
<path d="M213.944 269.205C213.944 269.205 225.597 230.767 285.451 269.327L263.951 252.472C263.951 252.472 212.488 235.153 206.542 255.139L213.944 269.205Z" fill="white"/>
<path opacity="0.1" d="M393.508 265.586C393.508 265.586 379.142 280.96 392.074 288.429C392.074 288.429 393.764 290.464 396.178 289.399C396.178 289.399 395.363 288.676 396.997 287.282C397.575 286.781 398.091 286.214 398.536 285.593C399.138 284.754 399.452 283.742 399.428 282.709C399.428 282.709 401.309 276.609 395.333 268.69C395.333 268.69 394.791 266.041 394.332 265.75L393.24 269.444C393.24 269.444 395.983 270.141 397.014 272.228C397.014 272.228 393.4 269.392 393.049 269.985C392.98 270.106 392.559 271.972 392.559 271.972C392.559 271.972 397.326 273.202 398.817 276.475C398.817 276.475 394.965 272.522 392.395 272.678L391.927 275.527C391.927 275.527 397.027 276.583 398.861 280.246C398.861 280.246 394.692 276.25 391.857 276.159L391.775 279.021C391.775 279.021 396.728 280.146 398.241 283.203C398.241 283.203 392.958 279.077 391.801 279.679C391.801 279.679 391.883 282.315 392.234 283.004C392.234 283.004 395.771 283.87 396.49 285.749C396.49 285.749 392.668 283.363 392.338 283.727C392.338 283.727 393.365 287.13 394.796 288.58C394.796 288.58 392.525 286.593 391.814 283.913C391.814 283.913 390.852 285.589 391.095 287.234C391.095 287.234 389.677 285.667 391.576 283.086C391.576 283.086 390.882 280.402 391.056 279.978C391.056 279.978 388.824 282.259 388.252 284.307C388.252 284.307 387.818 281.744 391.051 279.237V276.354C391.051 276.354 387.94 279.216 387.298 280.986C387.298 280.986 387.255 278.302 391.116 275.631L391.55 272.829C391.55 272.829 388.681 275.089 387.541 276.908C387.541 276.908 388.035 274.405 391.701 272.033L392.208 270.197C392.208 270.197 390.145 271.885 389.608 272.422C389.071 272.959 388.867 272.855 388.867 272.855C389.711 271.404 390.941 270.214 392.421 269.418C392.421 269.418 393.747 265.686 393.508 265.586Z" fill="#CC39B3"/>
<path opacity="0.1" d="M457.73 15.4221C457.73 15.4221 438.536 24.0813 447.585 35.94C447.585 35.94 448.361 38.4729 450.996 38.4209C450.996 38.4209 450.523 37.4381 452.569 36.78C453.296 36.5427 453.991 36.2185 454.64 35.8145C455.52 35.2726 456.2 34.4597 456.577 33.4982C456.577 33.4982 460.669 28.5971 458.211 18.9897C458.211 18.9897 458.736 16.3357 458.424 15.8897L455.988 18.8771C455.988 18.8771 458.25 20.5743 458.398 22.8993C458.398 22.8993 456.161 18.8901 455.607 19.3058C455.494 19.388 454.389 20.9467 454.389 20.9467C454.389 20.9467 458.289 23.9168 458.424 27.5147C458.424 27.5147 456.395 22.3798 453.96 21.5312L452.43 23.9817C452.43 23.9817 456.729 26.9215 457.015 31.0086C457.015 31.0086 454.71 25.7179 452.131 24.5402L450.948 27.138C450.948 27.138 455.087 30.0864 455.282 33.4895C455.282 33.4895 452.001 27.6446 450.701 27.7571C450.701 27.7571 449.761 30.2163 449.834 30.9913C449.834 30.9913 452.755 33.1561 452.703 35.165C452.703 35.165 450.103 31.4936 449.669 31.7014C449.669 31.7014 449.301 35.2343 450.064 37.1264C450.064 37.1264 448.733 34.416 449.115 31.6711C449.115 31.6711 447.576 32.8487 447.169 34.4593C447.169 34.4593 446.467 32.4634 449.214 30.8138C449.214 30.8138 449.609 28.0732 449.934 27.7485C449.934 27.7485 446.991 28.9911 445.682 30.645C445.682 30.645 446.267 28.1121 450.224 27.0471L451.351 24.3974C451.351 24.3974 447.377 25.8348 446.098 27.2203C446.098 27.2203 447.095 24.7264 451.689 23.7566L453.167 21.3407C453.167 21.3407 449.648 22.3235 447.893 23.5574C447.893 23.5574 449.318 21.4446 453.618 20.6652L454.792 19.1672C454.792 19.1672 452.235 19.9292 451.52 20.215C450.805 20.5007 450.653 20.3319 450.653 20.3319C452 19.3136 453.604 18.69 455.286 18.5308C455.286 18.5308 457.886 15.5953 457.73 15.4221Z" fill="#CC39B3"/>
<path opacity="0.1" d="M275.553 20.782C275.553 20.782 246.716 29.0082 260.735 41.2523C260.735 41.2523 261.979 43.85 265.971 43.85C265.971 43.85 265.225 42.8456 268.311 42.2351C269.373 42.0216 270.414 41.7145 271.423 41.3172C272.611 40.901 273.623 40.0934 274.291 39.0269C274.291 39.0269 280.359 34.1777 276.376 24.4015C276.376 24.4015 277.1 21.7345 276.614 21.2756L273.009 24.2283C273.009 24.2283 276.476 26.0078 276.766 28.3588C276.766 28.3588 273.269 24.25 272.432 24.6526C272.263 24.7349 270.629 26.2762 270.629 26.2762C270.629 26.2762 276.645 29.3849 276.918 33.0261C276.918 33.0261 273.711 27.7829 269.984 26.8607L267.73 29.294C267.73 29.294 274.317 32.381 274.859 36.52C274.859 36.52 271.228 31.1124 267.292 29.8525L265.559 32.4502C265.559 32.4502 271.904 35.5416 272.32 38.9879C272.32 38.9879 267.193 32.9914 265.225 33.065C265.225 33.065 263.869 35.5329 263.99 36.3166C263.99 36.3166 268.471 38.6026 268.45 40.6115C268.45 40.6115 264.402 36.8274 263.734 37.0266C263.734 37.0266 263.275 40.5899 264.48 42.5209C264.48 42.5209 262.391 39.7456 262.894 36.9833C262.894 36.9833 260.601 38.1307 260.025 39.7456C260.025 39.7456 258.907 37.715 263.024 36.1217C263.024 36.1217 263.548 33.3594 264.029 33.0391C264.029 33.0391 259.609 34.2167 257.671 35.8533C257.671 35.8533 258.486 33.3075 264.45 32.3377L266.088 29.688C266.088 29.688 260.107 31.0388 258.209 32.4026C258.209 32.4026 259.652 29.9088 266.586 29.0428L268.753 26.6399C268.753 26.6399 263.448 27.5361 260.822 28.7398C260.822 28.7398 262.924 26.6399 269.412 25.9688L271.145 24.4881C271.145 24.4881 267.292 25.1895 266.218 25.4579C265.143 25.7264 264.918 25.5532 264.918 25.5532C267.083 24.5055 269.446 23.9272 271.852 23.856C271.852 23.856 275.804 20.9638 275.553 20.782Z" fill="#CC39B3"/>
<path opacity="0.1" d="M360.628 341.787C360.628 341.787 375.146 326.551 362.288 318.957C362.288 318.957 360.615 316.904 358.193 317.944C358.193 317.944 359.003 318.675 357.356 320.056C356.774 320.551 356.252 321.112 355.8 321.728C355.188 322.56 354.866 323.57 354.882 324.602C354.882 324.602 352.936 330.686 358.838 338.661C358.838 338.661 359.354 341.315 359.809 341.613L360.94 337.929C360.94 337.929 358.201 337.206 357.192 335.11C357.192 335.11 360.776 337.977 361.131 337.388C361.205 337.267 361.642 335.409 361.642 335.409C361.642 335.409 356.875 334.11 355.428 330.846C355.428 330.846 359.241 334.838 361.816 334.703L362.31 331.859C362.31 331.859 357.222 330.755 355.415 327.096C355.415 327.096 359.545 331.132 362.379 331.253L362.487 328.387C362.487 328.387 357.543 327.192 356.043 324.118C356.043 324.118 361.287 328.3 362.448 327.707C362.448 327.707 362.392 325.074 362.015 324.382C362.015 324.382 358.487 323.455 357.785 321.593C357.785 321.593 361.586 324.018 361.915 323.654C361.915 323.654 360.923 320.243 359.506 318.779C359.506 318.779 361.759 320.788 362.444 323.472C362.444 323.472 363.424 321.806 363.194 320.16C363.194 320.16 364.598 321.745 362.674 324.304C362.674 324.304 363.341 326.997 363.164 327.417C363.164 327.417 365.417 325.157 366.006 323.135C366.006 323.135 366.44 325.702 363.159 328.174L363.116 331.058C363.116 331.058 366.253 328.226 366.912 326.46C366.912 326.46 366.912 329.149 363.042 331.781L362.609 334.578C362.609 334.578 365.499 332.344 366.657 330.538C366.657 330.538 366.136 333.032 362.448 335.37L361.924 337.202C361.924 337.202 364.004 335.535 364.559 335.002C365.114 334.47 365.304 334.569 365.304 334.569C364.447 336.014 363.205 337.192 361.716 337.972C361.716 337.972 360.412 341.683 360.628 341.787Z" fill="#CC39B3"/>
<path opacity="0.1" d="M219.032 0.536967C219.032 0.536967 221.506 21.4229 235.565 16.3833C235.565 16.3833 238.213 16.4049 238.958 13.8764C238.958 13.8764 237.875 14.0323 237.866 11.8848C237.856 11.1209 237.756 10.3608 237.567 9.62045C237.318 8.61877 236.747 7.72619 235.942 7.07898C235.942 7.07898 232.492 1.70163 222.564 1.17342C222.564 1.17342 220.189 -0.125459 219.669 0.0390653L221.788 3.25595C221.788 3.25595 224.089 1.61071 226.352 2.17355C226.352 2.17355 221.853 3.10009 222.083 3.74952C222.126 3.88374 223.279 5.40343 223.279 5.40343C223.279 5.40343 227.331 2.5459 230.798 3.52006C230.798 3.52006 225.29 3.90106 223.747 5.96628L225.597 8.16571C225.597 8.16571 229.697 4.95315 233.689 5.90999C233.689 5.90999 227.942 6.51613 226.04 8.61599L228.198 10.5297C228.198 10.5297 232.254 7.47297 235.565 8.29559C235.565 8.29559 228.995 9.66375 228.709 10.9323C228.709 10.9323 230.776 12.5689 231.539 12.7421C231.539 12.7421 234.503 10.6163 236.384 11.2657C236.384 11.2657 232.094 12.6425 232.159 13.1274C232.159 13.1274 235.422 14.5389 237.455 14.383C237.455 14.383 234.469 14.816 231.964 13.647C231.964 13.647 232.622 15.4611 234.04 16.34C234.04 16.34 231.925 16.4049 231.175 13.3093C231.175 13.3093 228.679 12.1056 228.466 11.703C228.466 11.703 228.77 14.8766 229.953 16.6214C229.953 16.6214 227.708 15.3225 227.881 11.2137L225.715 9.33903C225.715 9.33903 225.892 13.5604 226.828 15.197C226.828 15.197 224.748 13.4954 225.199 8.8238L223.34 6.68932C223.34 6.68932 223.214 10.3348 223.864 12.3784C223.864 12.3784 222.273 10.3868 222.828 6.0572L221.749 4.48556C221.749 4.48556 221.71 7.14825 221.749 7.91892C221.788 8.68959 221.602 8.76319 221.602 8.76319C221.032 7.1768 220.915 5.46346 221.264 3.81447C221.264 3.81447 219.249 0.433057 219.032 0.536967Z" fill="#CC39B3"/>
<path opacity="0.1" d="M324.108 294.417C324.108 294.417 303.817 288.788 303.167 303.699C303.167 303.699 302.144 306.141 304.203 307.786C304.203 307.786 304.467 306.73 306.461 307.531C307.172 307.812 307.914 308.008 308.671 308.115C309.695 308.263 310.739 308.071 311.644 307.57C311.644 307.57 317.928 306.418 322.192 297.465C322.192 297.465 324.294 295.763 324.359 295.218L320.576 295.958C320.576 295.958 321.226 298.712 319.848 300.591C319.848 300.591 320.715 296.079 320.008 296.045C319.865 296.045 318.019 296.525 318.019 296.525C318.019 296.525 319.128 301.314 316.914 304.15C316.914 304.15 318.647 298.911 317.317 296.703L314.569 297.607C314.569 297.607 315.991 302.612 313.59 305.938C313.59 305.938 315.211 300.4 313.98 297.846L311.406 299.097C311.406 299.097 312.706 304.007 310.682 306.76C310.682 306.76 311.904 300.171 310.834 299.422C310.834 299.422 308.537 300.72 308.09 301.353C308.09 301.353 308.957 304.899 307.622 306.392C307.622 306.392 307.969 301.902 307.497 301.781C307.497 301.781 304.948 304.262 304.324 306.202C304.324 306.202 305.039 303.271 307.089 301.405C307.089 301.405 305.156 301.327 303.809 302.301C303.809 302.301 304.545 300.322 307.709 300.811C307.709 300.811 309.772 298.954 310.227 298.915C310.227 298.915 307.193 297.988 305.104 298.421C305.104 298.421 307.176 296.845 310.899 298.56L313.464 297.261C313.464 297.261 309.486 295.828 307.618 296.075C307.618 296.075 309.98 294.776 314.119 296.98L316.797 296.066C316.797 296.066 313.469 294.572 311.328 294.399C311.328 294.399 313.776 293.685 317.577 295.837L319.44 295.434C319.44 295.434 316.988 294.386 316.255 294.135C315.523 293.884 315.527 293.702 315.527 293.702C317.206 293.779 318.83 294.318 320.221 295.261C320.221 295.261 324.121 294.655 324.108 294.417Z" fill="#CC39B3"/>
</g>
<defs>
<linearGradient id="paint0_linear" x1="230.733" y1="259.464" x2="230.733" y2="100.563" gradientUnits="userSpaceOnUse">
<stop stop-color="#808080" stop-opacity="0.25"/>
<stop offset="0.54" stop-color="#808080" stop-opacity="0.12"/>
<stop offset="1" stop-color="#808080" stop-opacity="0.1"/>
</linearGradient>
<clipPath id="clip0">
<rect width="459" height="341.782" fill="white"/>
</clipPath>
</defs>
</svg>
