<svg width="20" height="15" viewBox="0 0 20 15" fill="none" xmlns="http://www.w3.org/2000/svg">
<path fill-rule="evenodd" clip-rule="evenodd" d="M0 0H20V1.1543H0V0ZM0 2.30859H20V3.46289H0V2.30859ZM0 4.61426H20V5.77148H0V4.61426ZM0 6.92285H20V8.07715H0V6.92285ZM0 9.23145H20V10.3857H0V9.23145ZM0 11.5371H20V12.6914H0V11.5371ZM0 13.8457H20V15H0V13.8457Z" fill="#BD3D44"/>
<path fill-rule="evenodd" clip-rule="evenodd" d="M0 1.1543H20V2.30859H0V1.1543ZM0 3.46289H20V4.61426H0V3.46289ZM0 5.76855H20V6.92285H0V5.76855ZM0 8.07715H20V9.23145H0V8.07715ZM0 10.3857H20V11.54H0V10.3857ZM0 12.6914H20V13.8457H0V12.6914Z" fill="white"/>
<path fill-rule="evenodd" clip-rule="evenodd" d="M0 0H7.99959V8.07715H0V0Z" fill="#192F5D"/>
<path fill-rule="evenodd" clip-rule="evenodd" d="M0.666176 0.345703L0.740189 0.665039H0.974564L0.78542 0.861328L0.857377 1.18359L0.666176 0.984375L0.477032 1.18066L0.548989 0.861328L0.357788 0.665039H0.596275L0.666176 0.345703ZM2.00047 0.345703L2.07243 0.665039H2.30886L2.11766 0.861328L2.18961 1.18359L2.00047 0.984375L1.80927 1.18066L1.88123 0.861328L1.69208 0.665039H1.92646L2.00047 0.345703ZM3.33271 0.345703L3.40672 0.665039H3.63904L3.44989 0.861328L3.52185 1.18359L3.33065 0.984375L3.14151 1.18066L3.21346 0.861328L3.02226 0.665039H3.25869L3.33271 0.345703ZM4.667 0.345703L4.73896 0.665039H4.97539L4.78419 0.861328L4.8582 1.18359L4.667 0.984375L4.4758 1.18066L4.54981 0.861328L4.35861 0.665039H4.59299L4.667 0.345703ZM5.99924 0.345703L6.07325 0.665039H6.30762L6.11848 0.861328L6.19044 1.18359L5.99924 0.984375L5.81009 1.18066L5.88205 0.861328L5.6929 0.665039H5.92728L5.99924 0.345703ZM7.33353 0.345703L7.40549 0.665039H7.64192L7.45072 0.861328L7.52473 1.18359L7.33353 0.984375L7.14233 1.18066L7.21634 0.861328L7.02514 0.665039H7.26157L7.33353 0.345703ZM1.33435 1.1543L1.40631 1.47363H1.64274L1.45154 1.66992L1.52144 1.98926L1.33641 1.79297L1.14521 1.98926L1.21305 1.66992L1.02802 1.47363H1.26239L1.33435 1.1543ZM2.66659 1.1543L2.7406 1.47363H2.97498L2.78377 1.66992L2.85779 1.98926L2.66659 1.79297L2.47539 1.98926L2.5494 1.66992L2.3582 1.47363H2.59463L2.66659 1.1543ZM4.00088 1.1543L4.07284 1.47363H4.30927L4.11807 1.66992L4.19003 1.98926L4.00088 1.79297L3.80968 1.98926L3.88164 1.66992L3.69249 1.47363H3.92687L4.00088 1.1543ZM5.33312 1.1543L5.40713 1.47363H5.64151L5.4503 1.66992L5.52432 1.98926L5.33312 1.79297L5.14397 1.98926L5.21593 1.66992L5.02473 1.47363H5.26322L5.33312 1.1543ZM6.66741 1.1543L6.73937 1.47363H6.9758L6.7846 1.66992L6.85655 1.98926L6.66741 1.79297L6.47621 1.98926L6.54817 1.66992L6.35902 1.47363H6.5934L6.66741 1.1543ZM0.666176 1.95996L0.740189 2.28516H0.974564L0.78542 2.48144L0.857377 2.80078L0.666176 2.60156L0.477032 2.80078L0.548989 2.47851L0.357788 2.28223H0.596275L0.666176 1.95996ZM2.00047 1.95996L2.07243 2.28223H2.30886L2.11766 2.47851L2.18961 2.79785L2.00047 2.59863L1.80927 2.79785L1.88123 2.47558L1.69208 2.2793H1.92646L2.00047 1.95996ZM3.33271 1.95996L3.40672 2.28223H3.63904L3.44989 2.47851L3.52185 2.79785L3.33065 2.59863L3.14151 2.79785L3.21346 2.47558L3.02226 2.2793H3.25869L3.33271 1.95996ZM4.667 1.95996L4.73896 2.28223H4.97539L4.78419 2.47851L4.8582 2.79785L4.667 2.59863L4.4758 2.79785L4.54981 2.47558L4.35861 2.2793H4.59299L4.667 1.95996ZM5.99924 1.95996L6.07325 2.28223H6.30762L6.11848 2.47851L6.19044 2.79785L5.99924 2.59863L5.81009 2.79785L5.88205 2.47558L5.6929 2.2793H5.92728L5.99924 1.95996ZM7.33353 1.95996L7.40549 2.28223H7.64192L7.45072 2.47851L7.52473 2.79785L7.33353 2.59863L7.14233 2.79785L7.21634 2.47558L7.02514 2.2793H7.26157L7.33353 1.95996ZM1.33435 2.76855L1.40631 3.08789H1.64274L1.45154 3.28418L1.5235 3.60644L1.33435 3.40722L1.14315 3.60351L1.21511 3.28418L1.02596 3.08789H1.26034L1.33435 2.76855ZM2.66659 2.76855L2.7406 3.08789H2.97498L2.78377 3.28418L2.85779 3.60644L2.66659 3.40722L2.47539 3.60351L2.5494 3.28418L2.3582 3.08789H2.59463L2.66659 2.76855ZM4.00088 2.76855L4.07284 3.08789H4.30927L4.11807 3.28418L4.19003 3.60644L4.00088 3.40722L3.80968 3.60351L3.88164 3.28418L3.69249 3.08789H3.92687L4.00088 2.76855ZM5.33312 2.76855L5.40713 3.08789H5.64151L5.45236 3.28418L5.52432 3.60644L5.33312 3.40722L5.14397 3.60351L5.21593 3.28418L5.02473 3.08789H5.26322L5.33312 2.76855ZM6.66741 2.76855L6.73937 3.08789H6.9758L6.7846 3.28418L6.85655 3.60644L6.66741 3.40722L6.47621 3.60351L6.54817 3.28418L6.35902 3.08789H6.5934L6.66741 2.76855ZM0.666176 3.57715L0.740189 3.89648H0.974564L0.78542 4.09277L0.857377 4.41504L0.666176 4.21582L0.477032 4.41211L0.548989 4.09277L0.357788 3.89648H0.596275L0.666176 3.57715ZM2.00047 3.57715L2.07243 3.89648H2.30886L2.11766 4.09277L2.18961 4.41211L2.00047 4.21582L1.80927 4.41211L1.88123 4.09277L1.69208 3.89648H1.92646L2.00047 3.57715ZM3.33271 3.57715L3.40672 3.89648H3.63904L3.44989 4.09277L3.52185 4.41504L3.33065 4.21582L3.14151 4.41211L3.21346 4.09277L3.02226 3.89648H3.25869L3.33271 3.57715ZM4.667 3.57715L4.73896 3.89648H4.97539L4.78419 4.09277L4.8582 4.41504L4.667 4.21582L4.4758 4.41211L4.54981 4.09277L4.35861 3.89648H4.59299L4.667 3.57715ZM5.99924 3.57715L6.07325 3.89648H6.30762L6.11848 4.09277L6.19044 4.41504L5.99924 4.21582L5.81009 4.41211L5.88205 4.09277L5.6929 3.89648H5.92728L5.99924 3.57715ZM7.33353 3.57715L7.40549 3.89648H7.64192L7.45072 4.09277L7.52473 4.41504L7.33353 4.21582L7.14233 4.41211L7.21634 4.09277L7.02514 3.89648H7.26157L7.33353 3.57715ZM1.33435 4.38574L1.40631 4.70508H1.64274L1.45154 4.90136L1.5235 5.2207L1.33435 5.02148L1.14315 5.2207L1.21511 4.89844L1.02596 4.70215H1.26034L1.33435 4.38574ZM2.66659 4.38574L2.7406 4.70508H2.97498L2.78377 4.90136L2.85779 5.2207L2.66659 5.02148L2.47539 5.2207L2.5494 4.89844L2.3582 4.70215H2.59463L2.66659 4.38574ZM4.00088 4.38574L4.07284 4.70508H4.30927L4.11807 4.90136L4.19003 5.2207L4.00088 5.02148L3.80968 5.2207L3.88164 4.89844L3.69249 4.70215H3.92687L4.00088 4.38574ZM5.33312 4.38574L5.40713 4.70508H5.64151L5.45236 4.90136L5.52432 5.2207L5.33312 5.02148L5.14397 5.2207L5.21593 4.89844L5.02473 4.70215H5.26322L5.33312 4.38574ZM6.66741 4.38574L6.73937 4.70508H6.9758L6.7846 4.90136L6.85655 5.2207L6.66741 5.02148L6.47621 5.2207L6.54817 4.89844L6.35902 4.70215H6.5934L6.66741 4.38574ZM0.666176 5.1914L0.740189 5.51367H0.974564L0.78542 5.70996L0.857377 6.02636L0.666176 5.83008L0.477032 6.02636L0.548989 5.70703L0.357788 5.51074H0.596275L0.666176 5.1914ZM2.00047 5.1914L2.07243 5.51367H2.30886L2.11766 5.70996L2.19167 6.02636L2.00047 5.83008L1.80927 6.02636L1.88328 5.70703L1.69208 5.51074H1.92646L2.00047 5.1914ZM3.33271 5.1914L3.40672 5.51367H3.63904L3.44989 5.70996L3.52185 6.02636L3.33065 5.83008L3.14151 6.02636L3.21346 5.70703L3.02226 5.51074H3.25869L3.33271 5.1914ZM4.667 5.1914L4.73896 5.51367H4.97539L4.78419 5.70996L4.8582 6.02636L4.667 5.83008L4.4758 6.02636L4.54981 5.70703L4.35861 5.51074H4.59299L4.667 5.1914ZM5.99924 5.1914L6.07325 5.51367H6.30762L6.11848 5.70996L6.19044 6.02636L5.99924 5.83008L5.81009 6.02636L5.88205 5.70703L5.6929 5.51074H5.92728L5.99924 5.1914ZM7.33353 5.1914L7.40549 5.51367H7.64192L7.45072 5.70996L7.52473 6.02636L7.33353 5.83008L7.14233 6.02636L7.21634 5.70703L7.02514 5.51074H7.26157L7.33353 5.1914ZM1.33435 6L1.40631 6.31933H1.64274L1.45154 6.51562L1.5235 6.83789L1.33435 6.63867L1.14315 6.83496L1.21511 6.51562L1.02596 6.31933H1.26034L1.33435 6ZM2.66659 6L2.7406 6.31933H2.97498L2.78377 6.51562L2.85779 6.83789L2.66659 6.63867L2.47539 6.83496L2.5494 6.51562L2.3582 6.31933H2.59463L2.66659 6ZM4.00088 6L4.07284 6.31933H4.30927L4.11807 6.51562L4.19003 6.83789L4.00088 6.63867L3.80968 6.83496L3.88164 6.51562L3.69249 6.31933H3.92687L4.00088 6ZM5.33312 6L5.40713 6.31933H5.64151L5.45236 6.51562L5.52432 6.83789L5.33312 6.63867L5.14397 6.83496L5.21593 6.51562L5.02473 6.31933H5.26322L5.33312 6ZM6.66741 6L6.73937 6.31933H6.9758L6.7846 6.51562L6.85655 6.83789L6.66741 6.63867L6.47621 6.83496L6.54817 6.51562L6.35902 6.31933H6.5934L6.66741 6ZM0.666176 6.80859L0.740189 7.12793H0.974564L0.78542 7.32421L0.857377 7.64355L0.666176 7.44726L0.477032 7.64355L0.548989 7.32129L0.357788 7.125H0.596275L0.666176 6.80859ZM2.00047 6.80859L2.07243 7.12793H2.30886L2.11766 7.32421L2.19167 7.64355L2.00047 7.44726L1.80927 7.64355L1.88328 7.32129L1.69208 7.125H1.92646L2.00047 6.80859ZM3.33271 6.80859L3.40672 7.12793H3.63904L3.45401 7.32421L3.52596 7.64355L3.33476 7.44726L3.14562 7.64355L3.21757 7.32129L3.02637 7.125H3.2628L3.33271 6.80859ZM4.667 6.80859L4.73896 7.12793H4.97539L4.78419 7.32421L4.8582 7.64355L4.667 7.44726L4.4758 7.64355L4.54981 7.32129L4.35861 7.125H4.59299L4.667 6.80859ZM5.99924 6.80859L6.07325 7.12793H6.30762L6.11848 7.32421L6.19044 7.64355L5.99924 7.44726L5.81009 7.64355L5.88205 7.32129L5.6929 7.125H5.92728L5.99924 6.80859ZM7.33353 6.80859L7.40549 7.12793H7.64192L7.45072 7.32421L7.52473 7.64355L7.33353 7.44726L7.14233 7.64355L7.21634 7.32129L7.02514 7.125H7.26157L7.33353 6.80859Z" fill="white"/>
</svg>
